<svg width="30" height="30" viewBox="0 0 30 30" fill="none" xmlns="http://www.w3.org/2000/svg">
<path d="M26.4707 11.4286H18.5714V3.52929C18.5714 1.58857 16.9414 0 15 0C13.0586 0 11.4286 1.58857 11.4286 3.52929V11.4286H3.52929C1.58857 11.4286 0 13.0586 0 15C0 16.9414 1.58857 18.5714 3.52929 18.5714H11.4286V26.4707C11.4286 28.4114 13.0586 30 15 30C16.9414 30 18.5714 28.4114 18.5714 26.4707V18.5714H26.4707C28.4114 18.5714 30 16.9414 30 15C30 13.0586 28.4114 11.4286 26.4707 11.4286Z" fill="white"/>
</svg>
