<svg xmlns="http://www.w3.org/2000/svg" width="21.719" height="25.534" viewBox="0 0 21.719 25.534"><defs><style>.a{fill:#333;}</style></defs><g transform="translate(-36.073)"><g transform="translate(36.073)"><path class="a" d="M142.508,13.758h.169a4.879,4.879,0,0,0,3.728-1.613c2.036-2.295,1.7-6.229,1.66-6.6-.132-2.818-1.465-4.167-2.565-4.8A5.879,5.879,0,0,0,142.656,0h-.09a5.888,5.888,0,0,0-2.845.724,5.4,5.4,0,0,0-2.6,4.817c-.037.375-.375,4.309,1.66,6.6A4.86,4.86,0,0,0,142.508,13.758Zm-3.971-8.085c0-.016.005-.032.005-.042.174-3.791,2.866-4.2,4.019-4.2h.063c1.428.032,3.855.613,4.019,4.2a.1.1,0,0,0,.005.042c.005.037.375,3.633-1.306,5.526a3.466,3.466,0,0,1-2.723,1.132h-.053a3.454,3.454,0,0,1-2.718-1.132C138.172,9.317,138.531,5.705,138.537,5.674Z" transform="translate(-131.741)"/><path class="a" d="M57.791,265.82V265.8c0-.042-.005-.085-.005-.132-.032-1.047-.1-3.5-2.4-4.278l-.053-.016a15.257,15.257,0,0,1-4.389-2,.714.714,0,0,0-.82,1.169,16.468,16.468,0,0,0,4.828,2.2c1.232.439,1.37,1.755,1.407,2.961a1.063,1.063,0,0,0,.005.132,9.6,9.6,0,0,1-.111,1.634,19.459,19.459,0,0,1-9.322,2.168,19.572,19.572,0,0,1-9.327-2.173,9.086,9.086,0,0,1-.111-1.634c0-.042.005-.085.005-.132.037-1.206.174-2.522,1.407-2.961a16.621,16.621,0,0,0,4.828-2.2.714.714,0,1,0-.82-1.169,15.091,15.091,0,0,1-4.389,2c-.021.005-.037.011-.053.016-2.295.788-2.364,3.236-2.4,4.278a1.061,1.061,0,0,1-.005.132v.016a8.108,8.108,0,0,0,.27,2.4.679.679,0,0,0,.275.333A20,20,0,0,0,46.94,271.07a20.061,20.061,0,0,0,10.321-2.527.708.708,0,0,0,.275-.333A8.507,8.507,0,0,0,57.791,265.82Z" transform="translate(-36.073 -245.536)"/></g></g></svg>