<svg width="13" height="13" viewBox="0 0 13 13" fill="none" xmlns="http://www.w3.org/2000/svg">
<path d="M6.08682 5.86509C6.24806 5.70385 6.24806 5.44183 6.08682 5.28059C5.92558 5.11935 5.66356 5.11935 5.50232 5.28059L3.3155 7.46741C2.94263 7.84028 2.74108 8.324 2.74108 8.84803C2.74108 9.37206 2.94263 9.85578 3.3155 10.2287C4.08139 10.9945 5.32092 10.9945 6.07674 10.2287L11.0147 5.29067C11.5287 4.77671 11.8108 4.09144 11.8108 3.36586C11.8108 2.64028 11.5287 1.95501 11.0147 1.44106C9.94651 0.372838 8.22325 0.372838 7.15503 1.44106L2.22713 6.36896C1.56201 7.03408 1.19922 7.91082 1.19922 8.84803C1.19922 9.78524 1.56201 10.6721 2.22713 11.3271C2.89224 11.9922 3.76899 12.355 4.7062 12.355C5.64341 12.355 6.53023 11.9922 7.18527 11.3271L9.37209 9.14028C9.53333 8.97904 9.53333 8.71702 9.37209 8.55578C9.21085 8.39454 8.94883 8.39454 8.78759 8.55578L6.60077 10.7426C6.09689 11.2465 5.4217 11.5287 4.7062 11.5287C3.99069 11.5287 3.3155 11.2465 2.81162 10.7426C2.30775 10.2387 2.02558 9.56354 2.02558 8.84803C2.02558 8.13253 2.30775 7.45733 2.81162 6.95346L7.73953 2.02555C8.10232 1.66276 8.57596 1.47129 9.07984 1.47129C9.58371 1.47129 10.0674 1.67284 10.4201 2.02555C10.7829 2.38834 10.9744 2.86199 10.9744 3.36586C10.9744 3.86974 10.7729 4.35346 10.4201 4.70617L5.48216 9.64416C5.04883 10.0775 4.33333 10.0775 3.88992 9.64416C3.67829 9.43253 3.55736 9.15036 3.55736 8.84803C3.55736 8.54571 3.67829 8.26354 3.88992 8.05191L6.08682 5.86509Z" fill="#C1C1C1"/>
</svg>
