<svg width="8" height="8" viewBox="0 0 8 8" fill="none" xmlns="http://www.w3.org/2000/svg">
<path d="M6.31371 2.65358L6.42733 2.58796C6.20338 2.24076 5.90749 1.94486 5.56029 1.72091L5.49467 1.83454C5.46908 1.87856 5.423 1.90332 5.3754 1.90332C5.35216 1.90332 5.32849 1.8974 5.30676 1.88489C5.24101 1.84692 5.21845 1.76273 5.25641 1.69698L5.3223 1.58294C4.96423 1.39764 4.56297 1.28677 4.13763 1.26655V1.39709C4.13763 1.47316 4.076 1.53465 4.00007 1.53465C3.92413 1.53465 3.86251 1.47316 3.86251 1.39709V1.26655L3.55423 1.31758C3.30195 1.3594 3.05516 1.42915 2.81828 1.52558L2.67769 1.5828L2.74359 1.69684C2.78155 1.76273 2.75899 1.84678 2.69324 1.88475C2.6715 1.89727 2.64784 1.90318 2.6246 1.90318C2.577 1.90318 2.53078 1.87842 2.50533 1.8344L2.43971 1.72077C2.09237 1.94472 1.79662 2.24062 1.57267 2.58782L1.68629 2.65344C1.75205 2.69141 1.77461 2.77559 1.73664 2.84135C1.71105 2.88537 1.66497 2.91013 1.61737 2.91013C1.59413 2.91013 1.57046 2.90421 1.54873 2.89169L1.43469 2.8258C1.2494 3.18387 1.13852 3.58528 1.1183 4.01048H1.24885C1.32478 4.01048 1.38641 4.07197 1.38641 4.14804C1.38641 4.22411 1.32478 4.2856 1.24885 4.2856H1.11816C1.13839 4.71094 1.24926 5.11234 1.43455 5.47028L1.54859 5.40438C1.61448 5.36614 1.6984 5.38912 1.7365 5.45473C1.77447 5.52062 1.75191 5.60467 1.68615 5.64264L1.57253 5.70826C1.79648 6.05546 2.09237 6.35135 2.43958 6.5753L2.50519 6.46168C2.54316 6.39592 2.62693 6.37323 2.6931 6.41133C2.75885 6.4493 2.78141 6.53349 2.74345 6.59924L2.67756 6.71328C3.03563 6.89857 3.43689 7.00945 3.86223 7.02967V6.89912C3.86223 6.82305 3.92386 6.76156 3.99979 6.76156C4.07573 6.76156 4.13735 6.82305 4.13735 6.89912V7.02967C4.56269 7.00958 4.96396 6.89857 5.32203 6.71328L5.25614 6.59924C5.21817 6.53335 5.24073 6.4493 5.30649 6.41133C5.37238 6.37336 5.45629 6.39606 5.49439 6.46168L5.56001 6.5753C5.90735 6.35135 6.20311 6.05546 6.42706 5.70826L6.31343 5.64264C6.24768 5.60467 6.22512 5.52049 6.26308 5.45473C6.30105 5.38898 6.38496 5.366 6.45099 5.40438L6.56503 5.47028C6.75033 5.1122 6.8612 4.7108 6.88142 4.2856H6.75088C6.67494 4.2856 6.61331 4.22411 6.61331 4.14804C6.61331 4.07197 6.67494 4.01048 6.75088 4.01048H6.88142C6.8612 3.58514 6.75033 3.18374 6.56503 2.8258L6.45099 2.89169C6.42926 2.90421 6.4056 2.91013 6.38235 2.91013C6.33475 2.91013 6.28853 2.88537 6.26308 2.84135C6.22539 2.77573 6.24795 2.69154 6.31371 2.65358ZM5.5131 4.28588H4.53064C4.46915 4.52248 4.25552 4.69856 3.99993 4.69856C3.69647 4.69856 3.44969 4.45177 3.44969 4.14831C3.44969 3.89259 3.62576 3.67909 3.86237 3.6176V2.22246C3.86237 2.14639 3.924 2.0849 3.99993 2.0849C4.07586 2.0849 4.13749 2.14639 4.13749 2.22246V3.6176C4.32994 3.66768 4.48057 3.81831 4.53064 4.01075H5.5131C5.58904 4.01075 5.65066 4.07224 5.65066 4.14831C5.65066 4.22439 5.58904 4.28588 5.5131 4.28588Z" fill="#ADADAD"/>
<path d="M4.00022 4.42341C4.15217 4.42341 4.27534 4.30023 4.27534 4.14829C4.27534 3.99634 4.15217 3.87317 4.00022 3.87317C3.84827 3.87317 3.7251 3.99634 3.7251 4.14829C3.7251 4.30023 3.84827 4.42341 4.00022 4.42341Z" fill="#ADADAD"/>
<path d="M6.90404 1.34356L7.46749 1.90701C7.49335 1.93287 7.52829 1.94731 7.56474 1.94731C7.6012 1.94731 7.63627 1.93287 7.662 1.90701C8.09765 1.47149 8.09765 0.762638 7.662 0.32712C7.45112 0.116239 7.17049 0 6.87212 0C6.57375 0 6.29327 0.116239 6.08225 0.32712C6.05639 0.352982 6.04194 0.387785 6.04194 0.424376C6.04194 0.460967 6.05639 0.495908 6.08225 0.521632L6.70966 1.14905L6.47595 1.38276C5.8184 0.793452 4.95053 0.434143 4.00012 0.434143C3.04971 0.434143 2.1817 0.793452 1.52416 1.38276L1.29045 1.14905L1.91786 0.521632C1.94372 0.49577 1.95817 0.460967 1.95817 0.424376C1.95817 0.387785 1.94372 0.352844 1.91786 0.32712C1.70684 0.116239 1.42636 0 1.12799 0C0.829478 0 0.548991 0.116239 0.337972 0.32712C-0.0976835 0.762638 -0.0976835 1.47149 0.337972 1.90701C0.363834 1.93287 0.398774 1.94731 0.435228 1.94731C0.471682 1.94731 0.50676 1.93287 0.532484 1.90701L1.09593 1.34356L1.32649 1.57411C0.682838 2.24225 0.285837 3.1496 0.285837 4.14829C0.285837 5.50987 1.02275 6.70197 2.11829 7.34865L1.70175 7.76518C1.64797 7.81897 1.64797 7.90591 1.70175 7.95969C1.72858 7.98652 1.76379 8 1.79901 8C1.83422 8 1.86944 7.98652 1.89626 7.95969L2.37085 7.48511C2.86304 7.72639 3.4159 7.86244 3.99998 7.86244C4.58407 7.86244 5.13693 7.72639 5.62912 7.48511L6.10371 7.95969C6.13053 7.98652 6.16575 8 6.20096 8C6.23618 8 6.27139 7.98652 6.29822 7.95969C6.352 7.90591 6.352 7.81897 6.29822 7.76518L5.88168 7.34865C6.97722 6.70197 7.71413 5.50987 7.71413 4.14829C7.71413 3.1496 7.31713 2.24225 6.67348 1.57411L6.90404 1.34356ZM6.73484 2.56056C6.73635 2.56276 6.73869 2.56414 6.74006 2.56648C6.74144 2.56881 6.74144 2.57157 6.74254 2.57404C7.00996 3.03817 7.16389 3.57549 7.16389 4.14843C7.16389 4.72137 7.00996 5.25882 6.74254 5.72282C6.7413 5.72529 6.74144 5.7279 6.74006 5.73038C6.73814 5.73382 6.73525 5.7363 6.73305 5.73946C6.45655 6.21239 6.0612 6.60733 5.58785 6.88328C5.58565 6.88479 5.58428 6.88713 5.58194 6.88851C5.57836 6.89057 5.57451 6.8914 5.57093 6.89305C5.10763 7.15923 4.57155 7.31233 3.99998 7.31233C3.42842 7.31233 2.89234 7.15923 2.42904 6.89305C2.42546 6.8914 2.42161 6.89057 2.41803 6.88851C2.41569 6.88713 2.41446 6.88479 2.41212 6.88328C1.93877 6.60733 1.54342 6.21253 1.26692 5.73946C1.26472 5.7363 1.26183 5.73382 1.25991 5.73038C1.25853 5.72804 1.25853 5.72529 1.25743 5.72282C0.990012 5.25868 0.836081 4.72137 0.836081 4.14843C0.836081 3.57549 0.990012 3.03804 1.25743 2.57404C1.25867 2.57157 1.25853 2.56895 1.25991 2.56648C1.26128 2.56414 1.26362 2.5629 1.26513 2.56056C1.54163 2.08611 1.93781 1.69008 2.41212 1.41358C2.41432 1.41206 2.41569 1.40973 2.41803 1.40835C2.42051 1.40697 2.42312 1.40697 2.4256 1.40574C2.88959 1.13832 3.42704 0.984387 3.99998 0.984387C4.57293 0.984387 5.11038 1.13818 5.57437 1.40574C5.57685 1.40697 5.57946 1.40697 5.58194 1.40835C5.58428 1.40973 5.58551 1.41206 5.58785 1.41358C6.0623 1.68994 6.45834 2.08611 6.73484 2.56056Z" fill="#ADADAD"/>
</svg>
