<svg width="6" height="6" viewBox="0 0 6 6" fill="none" xmlns="http://www.w3.org/2000/svg">
<path d="M5.79719 1.18179L3.97923 2.99996L5.79719 4.81804C6.0676 5.08856 6.0676 5.52676 5.79719 5.79728C5.66208 5.93239 5.48494 6 5.30788 6C5.13054 6 4.95338 5.9325 4.81837 5.79728L3.00001 3.97899L1.18179 5.79726C1.04669 5.93237 0.869533 5.99998 0.692324 5.99998C0.515166 5.99998 0.338129 5.93248 0.202913 5.79726C-0.0675 5.52686 -0.0675 5.08864 0.202913 4.81802L2.02083 2.99994L0.20281 1.18179C-0.0676033 0.911378 -0.0676033 0.473071 0.20281 0.202656C0.473172 -0.0675521 0.911217 -0.0675521 1.18168 0.202656L2.99999 2.02082L4.81816 0.202656C5.08868 -0.0675521 5.52678 -0.0675521 5.79709 0.202656C6.0676 0.473071 6.0676 0.911378 5.79719 1.18179Z" fill="#333333"/>
</svg>
