<svg width="20" height="20" viewBox="0 0 20 20" fill="none" xmlns="http://www.w3.org/2000/svg">
<g clip-path="url(#clip0)">
<path d="M19.7634 0.236875C19.4479 -0.0786328 18.9364 -0.0786328 18.6208 0.236875L0.236631 18.6211C-0.0788769 18.9366 -0.0788769 19.4481 0.236631 19.7636C0.394365 19.9214 0.601162 20.0002 0.80792 20.0002C1.01468 20.0002 1.22144 19.9214 1.37921 19.7636L19.7634 1.37937C20.0789 1.06391 20.0789 0.552383 19.7634 0.236875Z" fill="#808080"/>
<path d="M19.7633 18.622L1.37913 0.237882C1.06366 -0.0776256 0.5521 -0.0776256 0.236631 0.237882C-0.0788769 0.55335 -0.0788769 1.06487 0.236631 1.38038L18.6208 19.7646C18.7786 19.9223 18.9854 20.0012 19.1921 20.0012C19.3989 20.0012 19.6057 19.9223 19.7634 19.7646C20.0788 19.4491 20.0788 18.9375 19.7633 18.622Z" fill="#808080"/>
</g>
<defs>
<clipPath id="clip0">
<rect width="20" height="20" fill="white"/>
</clipPath>
</defs>
</svg>
