<?xml version="1.0" encoding="UTF-8" standalone="no"?>
<svg
   xmlns:dc="http://purl.org/dc/elements/1.1/"
   xmlns:cc="http://creativecommons.org/ns#"
   xmlns:rdf="http://www.w3.org/1999/02/22-rdf-syntax-ns#"
   xmlns:svg="http://www.w3.org/2000/svg"
   xmlns="http://www.w3.org/2000/svg"
   xmlns:sodipodi="http://sodipodi.sourceforge.net/DTD/sodipodi-0.dtd"
   xmlns:inkscape="http://www.inkscape.org/namespaces/inkscape"
   width="5"
   height="5"
   viewBox="0 0 5 5"
   fill="none"
   id="svg3386"
   version="1.1"
   inkscape:version="0.91 r13725"
   sodipodi:docname="comment.svg">
  <metadata
     id="metadata3396">
    <rdf:RDF>
      <cc:Work
         rdf:about="">
        <dc:format>image/svg+xml</dc:format>
        <dc:type
           rdf:resource="http://purl.org/dc/dcmitype/StillImage" />
        <dc:title></dc:title>
      </cc:Work>
    </rdf:RDF>
  </metadata>
  <defs
     id="defs3394" />
  <sodipodi:namedview
     pagecolor="#ffffff"
     bordercolor="#666666"
     borderopacity="1"
     objecttolerance="10"
     gridtolerance="10"
     guidetolerance="10"
     inkscape:pageopacity="0"
     inkscape:pageshadow="2"
     inkscape:window-width="1600"
     inkscape:window-height="844"
     id="namedview3392"
     showgrid="false"
     inkscape:zoom="47.446865"
     inkscape:cx="-1.4176016"
     inkscape:cy="3.1882015"
     inkscape:window-x="0"
     inkscape:window-y="30"
     inkscape:window-maximized="1"
     inkscape:current-layer="svg3386" />
  <g
     id="g3398">
    <g
       id="g3402">
      <path
         d="M2.95066 3.20166C3.25289 3.07425 3.49149 2.90081 3.66632 2.68128C3.84114 2.46181 3.92855 2.22279 3.92855 1.96424C3.92855 1.70567 3.84114 1.46664 3.66625 1.24715C3.49144 1.02766 3.25288 0.854207 2.95061 0.726761C2.64834 0.599334 2.31958 0.535645 1.96427 0.535645C1.60899 0.535645 1.28022 0.599373 0.977931 0.726761C0.675669 0.854198 0.437106 1.02765 0.262281 1.24715C0.0874369 1.46668 0 1.70567 0 1.96425C0 2.18558 0.0661323 2.394 0.198192 2.58931C0.330241 2.78458 0.511614 2.94923 0.742251 3.08314C0.723663 3.12782 0.704597 3.16869 0.685061 3.20594C0.665515 3.24314 0.642286 3.27892 0.615293 3.31336C0.58832 3.34781 0.567416 3.37476 0.552523 3.39423C0.537639 3.41375 0.513461 3.44125 0.47996 3.47653C0.446469 3.51188 0.425066 3.53513 0.415782 3.54626C0.415782 3.5444 0.412059 3.54861 0.404612 3.55884C0.397155 3.56907 0.392973 3.57369 0.392054 3.57282C0.391116 3.57182 0.387392 3.57647 0.380884 3.5867C0.374375 3.59694 0.371111 3.60205 0.371111 3.60205L0.364123 3.61596C0.361367 3.62158 0.359472 3.62707 0.358553 3.63269C0.357615 3.63823 0.357146 3.64432 0.357146 3.65081C0.357146 3.6573 0.358064 3.66332 0.35996 3.66893C0.363684 3.69308 0.374375 3.71257 0.392044 3.72753C0.409704 3.74238 0.428751 3.7498 0.449234 3.7498H0.45761C0.550597 3.73678 0.630597 3.72191 0.697551 3.70515C0.98401 3.63078 1.24259 3.51168 1.47323 3.348C1.64063 3.37777 1.80433 3.39264 1.96429 3.39264C2.31959 3.39277 2.6484 3.3291 2.95066 3.20166Z"
         fill="#797979"
         id="path3388"
         style="fill:#d0d0d0;fill-opacity:1" />
      <path
         d="M4.80194 3.30489C4.93405 3.11052 5.00005 2.9018 5.00005 2.67856C5.00005 2.44974 4.93022 2.23569 4.79076 2.03668C4.65123 1.83769 4.46148 1.67211 4.22154 1.54004C4.26429 1.67954 4.28568 1.8209 4.28568 1.96416C4.28568 2.21339 4.22345 2.44963 4.09874 2.67287C3.97412 2.89604 3.79554 3.0932 3.56304 3.26436C3.34725 3.4206 3.10171 3.54054 2.82639 3.62428C2.55115 3.70795 2.26375 3.74984 1.96426 3.74984C1.90848 3.74984 1.82662 3.74615 1.71875 3.73873C2.09262 3.98421 2.53162 4.10701 3.03569 4.10701C3.19568 4.10701 3.35935 4.0921 3.52678 4.06234C3.75742 4.22608 4.016 4.34508 4.30244 4.41953C4.36941 4.43632 4.4494 4.45116 4.5424 4.46417C4.56472 4.46603 4.58522 4.45952 4.60381 4.44463C4.6224 4.42976 4.63451 4.40935 4.64006 4.38334C4.63919 4.37217 4.64006 4.36604 4.64287 4.36515C4.64561 4.36427 4.64515 4.35819 4.64146 4.34705C4.63779 4.33587 4.63591 4.33029 4.63591 4.33029L4.62895 4.31637C4.62702 4.3127 4.62387 4.30755 4.61919 4.30106C4.61454 4.29461 4.61083 4.28989 4.60802 4.28711C4.60528 4.28434 4.60113 4.27966 4.59551 4.2732C4.58996 4.26675 4.58622 4.26253 4.58434 4.26066C4.57505 4.24949 4.55366 4.22625 4.52019 4.19089C4.48668 4.15558 4.46254 4.12815 4.44766 4.10862C4.43277 4.08909 4.41184 4.06214 4.38488 4.02769C4.35792 3.99331 4.33465 3.95749 4.31511 3.92027C4.29558 3.88308 4.27652 3.84214 4.25792 3.79753C4.48858 3.66348 4.6699 3.49933 4.80194 3.30489Z"
         fill="#797979"
         id="path3390"
         style="fill:#d0d0d0;fill-opacity:1" />
    </g>
  </g>
</svg>
