<svg width="35" height="43" viewBox="0 0 35 43" fill="none" xmlns="http://www.w3.org/2000/svg">
<path d="M28.2495 17.9165H10.3329C9.93728 17.9165 9.61621 18.2369 9.61621 18.6332C9.61621 19.0295 9.93728 19.3498 10.3329 19.3498H28.2495C28.6451 19.3498 28.9662 19.0295 28.9662 18.6332C28.9662 18.2369 28.6451 17.9165 28.2495 17.9165Z" fill="#828282"/>
<path d="M10.3329 13.6164H17.4995C17.8951 13.6164 18.2162 13.2961 18.2162 12.8998C18.2162 12.5035 17.8951 12.1831 17.4995 12.1831H10.3329C9.93728 12.1831 9.61621 12.5035 9.61621 12.8998C9.61621 13.2961 9.93728 13.6164 10.3329 13.6164Z" fill="#828282"/>
<path d="M28.2495 23.6499H10.3329C9.93728 23.6499 9.61621 23.9703 9.61621 24.3666C9.61621 24.7629 9.93728 25.0832 10.3329 25.0832H28.2495C28.6451 25.0832 28.9662 24.7629 28.9662 24.3666C28.9662 23.9703 28.6451 23.6499 28.2495 23.6499Z" fill="#828282"/>
<path d="M28.2495 29.3833H10.3329C9.93728 29.3833 9.61621 29.7037 9.61621 30.1C9.61621 30.4963 9.93728 30.8166 10.3329 30.8166H28.2495C28.6451 30.8166 28.9662 30.4963 28.9662 30.1C28.9662 29.7037 28.6451 29.3833 28.2495 29.3833Z" fill="#828282"/>
<path d="M28.2495 35.1167H10.3329C9.93728 35.1167 9.61621 35.437 9.61621 35.8334C9.61621 36.2297 9.93728 36.55 10.3329 36.55H28.2495C28.6451 36.55 28.9662 36.2297 28.9662 35.8334C28.9662 35.437 28.6451 35.1167 28.2495 35.1167Z" fill="#828282"/>
<path d="M31.1165 10.4533V0H0.299805V39.4167H3.88314V43H34.6998V14.0366L31.1165 10.4533ZM24.6665 6.03003L31.1165 12.48L32.2531 13.6167H24.6665V6.03003ZM1.73314 37.9833V1.43333H29.6831V9.01997L24.2465 3.58333H3.88314V37.9833H1.73314ZM5.31647 41.5667V39.4167V5.01667H23.2331V15.05H33.2665V41.5667H5.31647Z" fill="#828282"/>
</svg>
