<svg width="9" height="9" viewBox="0 0 9 9" fill="none" xmlns="http://www.w3.org/2000/svg">
<path d="M7.64388 5.73584V7.79175H1.35517V5.73584H0.146484V8.39609C0.146484 8.72963 0.416683 9.00013 0.751728 9.00013H8.24733C8.58207 9.00013 8.85257 8.72993 8.85257 8.39609V5.73584H7.64388Z" fill="#555555"/>
<path d="M4.38902 5.53186L2.65856 3.44082C2.65856 3.44082 2.39526 3.19224 2.68077 3.19224C2.96628 3.19224 3.65589 3.19224 3.65589 3.19224C3.65589 3.19224 3.65589 3.02502 3.65589 2.76713C3.65589 2.03189 3.65589 0.693809 3.65589 0.148309C3.65589 0.148309 3.61716 0 3.84052 0C4.06569 0 5.05191 0 5.21313 0C5.37405 0 5.37044 0.124892 5.37044 0.124892C5.37044 0.65388 5.37044 2.03819 5.37044 2.74942C5.37044 2.97999 5.37044 3.12949 5.37044 3.12949C5.37044 3.12949 5.92345 3.12949 6.2705 3.12949C6.61696 3.12949 6.35607 3.38979 6.35607 3.38979C6.35607 3.38979 4.88379 5.34422 4.67844 5.54927C4.53073 5.69788 4.38902 5.53186 4.38902 5.53186Z" fill="#555555"/>
</svg>
