<svg width="10" height="10" viewBox="0 0 10 10" fill="none" xmlns="http://www.w3.org/2000/svg">
<g clip-path="url(#clip0)">
<path d="M0.959803 3.4934C1.0863 3.58266 1.46762 3.84778 2.10376 4.28861C2.73993 4.72944 3.22728 5.06886 3.56583 5.30691C3.60302 5.333 3.68204 5.38972 3.80293 5.47715C3.92384 5.56464 4.02431 5.63533 4.10425 5.68926C4.18425 5.74317 4.28096 5.80364 4.39448 5.87058C4.50796 5.93747 4.61493 5.98778 4.71538 6.02108C4.81584 6.05466 4.90884 6.0713 4.99439 6.0713H5H5.00563C5.09118 6.0713 5.18422 6.05464 5.28468 6.02108C5.38509 5.98778 5.49216 5.93741 5.60554 5.87058C5.71898 5.80356 5.81569 5.74315 5.89569 5.68926C5.97569 5.63533 6.07608 5.56464 6.19703 5.47715C6.3179 5.38965 6.39702 5.333 6.43421 5.30691C6.77641 5.06886 7.64703 4.4643 9.04579 3.49328C9.31735 3.30363 9.54424 3.07479 9.7265 2.80692C9.9089 2.53917 10 2.25828 10 1.96441C10 1.71884 9.9116 1.50863 9.73487 1.33379C9.55815 1.15892 9.34886 1.07153 9.10712 1.07153H0.89282C0.60638 1.07153 0.385946 1.16824 0.231556 1.36167C0.0771853 1.55513 0 1.79695 0 2.0871C0 2.32147 0.10234 2.57544 0.306923 2.84887C0.511487 3.12231 0.729185 3.33717 0.959803 3.4934Z" fill="#C4C4C4"/>
<path d="M9.44189 4.09045C8.22178 4.91627 7.29532 5.55807 6.66296 6.0157C6.45092 6.17189 6.2789 6.29382 6.14679 6.38119C6.01468 6.46861 5.83899 6.5579 5.61945 6.649C5.39999 6.74024 5.19547 6.78572 5.0057 6.78572H5.00001H4.9944C4.80468 6.78572 4.60003 6.74024 4.38058 6.649C4.16112 6.5579 3.98531 6.46861 3.85324 6.38119C3.72121 6.29382 3.54913 6.17189 3.3371 6.0157C2.83484 5.64743 1.91038 5.00559 0.563673 4.09045C0.351565 3.94918 0.163694 3.78724 0 3.60498V8.03565C0 8.28134 0.087388 8.49144 0.262262 8.66629C0.437096 8.8412 0.647328 8.92863 0.892878 8.92863H9.10719C9.35268 8.92863 9.56289 8.8412 9.73775 8.66629C9.91266 8.49138 10 8.28136 10 8.03565V3.60498C9.84001 3.78347 9.65405 3.9454 9.44189 4.09045Z" fill="#C4C4C4"/>
</g>
<defs>
<clipPath id="clip0">
<rect width="10" height="10" fill="white"/>
</clipPath>
</defs>
</svg>
