<svg width="50" height="44" viewBox="0 0 50 44" fill="none" xmlns="http://www.w3.org/2000/svg">
<path d="M25.3208 15.5566C22.504 15.5566 20.2205 17.8401 20.2205 20.6569C20.2205 23.4737 22.5039 25.7572 25.3208 25.7572C28.1375 25.7572 30.4211 23.4738 30.4211 20.6569C30.4211 17.8401 28.1376 15.5566 25.3208 15.5566ZM25.3208 23.3284C23.8453 23.3284 22.6492 22.1323 22.6492 20.6568C22.6492 19.1813 23.8453 17.9852 25.3208 17.9852C26.7963 17.9852 27.9924 19.1813 27.9924 20.6568C27.9924 22.1323 26.7963 23.3284 25.3208 23.3284Z" fill="#A9A9A9"/>
<path d="M45.6611 3.89861L12.5095 0.134224C11.2228 -0.0487019 9.91924 0.326911 8.92721 1.16646C7.9353 1.93559 7.29948 3.07567 7.16641 4.32373L6.55929 9.30258H4.67693C2.00534 9.30258 0.00164086 11.6705 0.00164086 14.3421V39.1754C-0.0656487 41.723 1.94502 43.8429 4.49272 43.9102C4.55409 43.9119 4.61557 43.9122 4.67693 43.9114H38.0107C40.6823 43.9114 43.111 41.847 43.111 39.1754V38.204C43.9393 38.044 44.725 37.7131 45.4183 37.2325C46.402 36.4043 47.0319 35.2313 47.1791 33.9538L49.9721 9.30258C50.2568 6.62482 48.3352 4.21599 45.6611 3.89861ZM40.6823 39.1754C40.6823 40.5112 39.3465 41.4827 38.0107 41.4827H4.67693C3.47025 41.5181 2.46335 40.5687 2.4279 39.362C2.42604 39.2998 2.42685 39.2376 2.43034 39.1754V34.6824L11.8416 27.7606C12.9721 26.8926 14.5645 26.9698 15.6061 27.9427L22.2243 33.7716C23.2293 34.6154 24.4945 35.0872 25.8067 35.1074C26.8326 35.1199 27.8417 34.8467 28.7211 34.318L40.6824 27.3963V39.1754H40.6823ZM40.6823 24.5426L27.4459 32.2537C26.3093 32.927 24.8706 32.8051 23.8635 31.9501L17.1847 26.0605C15.2704 24.4157 12.4726 24.3148 10.445 25.8176L2.43034 31.6464V14.3421C2.43034 13.0063 3.34113 11.7313 4.67693 11.7313H38.0107C39.4378 11.7904 40.5904 12.9168 40.6823 14.3421V24.5426ZM47.5457 8.97473C47.5449 8.98275 47.5442 8.99088 47.5433 8.9989L44.6896 33.6501C44.6945 34.2893 44.403 34.8947 43.9002 35.2895C43.6573 35.5324 43.1109 35.6538 43.1109 35.7753V14.3421C43.015 11.576 40.7776 9.36522 38.0106 9.30258H8.98788L9.53433 4.56662C9.65287 3.95334 9.97351 3.39759 10.4451 2.98793C10.9776 2.61976 11.6215 2.4481 12.2667 2.50214L45.3577 6.32731C46.6928 6.4541 47.6725 7.6394 47.5457 8.97473Z" fill="#A9A9A9"/>
</svg>
