<svg width="22" height="22" viewBox="0 0 22 22" fill="none" xmlns="http://www.w3.org/2000/svg">
<g clip-path="url(#clip0)">
<path d="M3.31329 17.2588H2.37033C1.06331 17.2588 0 18.3223 0 19.6293V21.3553C0 21.7113 0.288528 21.9998 0.644531 21.9998H3.42424C3.35257 21.798 3.31329 21.5812 3.31329 21.3553V17.2588Z" fill="url(#paint0_linear)"/>
<path d="M7.91486 13.8076H6.97206C5.66504 13.8076 4.60156 14.8711 4.60156 16.1781V21.3559C4.60156 21.7119 4.89009 22.0004 5.24609 22.0004H8.0258C7.9543 21.7986 7.91486 21.5818 7.91486 21.3559V13.8076Z" fill="url(#paint1_linear)"/>
<path d="M21.8714 6.47418L17.2688 0.260834C17.1471 0.0968475 16.9551 0 16.7508 0C16.5466 0 16.3544 0.0968475 16.2329 0.260834L11.6305 6.47418C11.4856 6.66972 11.4633 6.93039 11.5728 7.14775C11.6824 7.36511 11.9049 7.50241 12.1485 7.50241H13.8051V21.3555C13.8051 21.7115 14.0936 22 14.4497 22H19.052C19.408 22 19.6966 21.7115 19.6966 21.3555V7.50241H21.3534C21.5968 7.50241 21.8195 7.36511 21.9289 7.14775C22.0385 6.93039 22.0162 6.66972 21.8714 6.47418Z" fill="url(#paint2_linear)"/>
<path d="M12.5166 10.3555H11.5736C10.2666 10.3555 9.20312 11.4188 9.20312 12.7258V21.3555C9.20312 21.7115 9.49182 22 9.84766 22H12.6274C12.5559 21.7982 12.5166 21.5814 12.5166 21.3555V10.3555Z" fill="url(#paint3_linear)"/>
</g>
<defs>
<linearGradient id="paint0_linear" x1="1.71212" y1="17.2588" x2="1.71212" y2="21.9998" gradientUnits="userSpaceOnUse">
<stop stop-color="#00ACFB"/>
<stop offset="1" stop-color="#0090F9"/>
</linearGradient>
<linearGradient id="paint1_linear" x1="6.31368" y1="13.8076" x2="6.31368" y2="22.0004" gradientUnits="userSpaceOnUse">
<stop stop-color="#00ACFB"/>
<stop offset="1" stop-color="#0090F9"/>
</linearGradient>
<linearGradient id="paint2_linear" x1="16.7509" y1="0" x2="16.7509" y2="22" gradientUnits="userSpaceOnUse">
<stop stop-color="#00ACFB"/>
<stop offset="1" stop-color="#0090F9"/>
</linearGradient>
<linearGradient id="paint3_linear" x1="10.9152" y1="10.3555" x2="10.9152" y2="22" gradientUnits="userSpaceOnUse">
<stop stop-color="#00ACFB"/>
<stop offset="1" stop-color="#0090F9"/>
</linearGradient>
<clipPath id="clip0">
<rect width="22" height="22" fill="white"/>
</clipPath>
</defs>
</svg>
