<svg width="22" height="22" viewBox="0 0 22 22" fill="none" xmlns="http://www.w3.org/2000/svg">
<g clip-path="url(#clip0)">
<path d="M19.3995 11.0028C19.3013 11.4962 18.8637 11.8557 18.339 11.878C18.1737 11.8847 18.0331 12.0053 18.0018 12.1683C17.9683 12.3313 18.0509 12.4965 18.2005 12.5657C18.6761 12.789 18.9418 13.2891 18.8413 13.7825L18.7475 14.2514C18.6247 14.8699 17.9415 15.2561 17.3431 15.1088C17.1757 15.0686 17.0038 15.0373 16.8341 15.0038C16.584 14.9547 16.3339 14.9034 16.0839 14.8543C15.7534 14.7873 15.4229 14.7225 15.0925 14.6556C14.6996 14.5774 14.3044 14.497 13.9114 14.4189C13.4716 14.3296 13.0317 14.2425 12.5918 14.1532C12.123 14.0594 11.6519 13.9656 11.183 13.8696C10.7007 13.7736 10.2184 13.6754 9.7384 13.5794C9.26059 13.4834 8.78501 13.3873 8.30718 13.2914C7.85172 13.1998 7.39622 13.1083 6.94076 13.0167C6.52324 12.9341 6.10795 12.8493 5.69042 12.7667C5.32872 12.6952 4.96701 12.6215 4.60754 12.5501C4.31952 12.492 4.03149 12.434 3.74123 12.3759C3.54252 12.3357 3.34378 12.2955 3.14509 12.2554C3.05353 12.2375 2.96201 12.2174 2.87046 12.1996C2.866 12.1996 2.86153 12.1973 2.85704 12.1973C2.90616 12.4295 2.88384 12.6773 2.77667 12.9096C2.55114 13.3963 2.02644 13.6508 1.52186 13.5526C1.37227 13.5236 1.20928 13.5794 1.14453 13.7178L0.943579 14.1532C0.878852 14.2916 0.943579 14.4524 1.06194 14.5484C1.08426 14.5663 17.1779 21.9857 17.2047 21.9923C17.3543 22.0214 17.5173 21.9655 17.582 21.8271L17.783 21.3917C17.8477 21.2533 17.783 21.0926 17.6646 20.9966C17.2627 20.6773 17.1153 20.1124 17.3409 19.6257C17.5664 19.1389 18.0911 18.8844 18.5957 18.9826C18.7453 19.0116 18.9083 18.9558 18.973 18.8174L19.1739 18.382C19.2387 18.2436 19.1739 18.0828 19.0556 17.9868C18.6537 17.6675 18.5064 17.1027 18.7319 16.6159C18.9574 16.1292 19.4821 15.8747 19.9867 15.9729C20.1363 16.0019 20.2992 15.9461 20.364 15.8077L20.5649 15.3723C20.6297 15.2339 20.5649 15.0731 20.4466 14.9771C20.0447 14.6578 19.8973 14.0929 20.1228 13.6062C20.3484 13.1195 20.8731 12.8649 21.3776 12.9632C21.5272 12.9922 21.6902 12.9364 21.755 12.798L21.976 12.3157C22.0407 12.1772 21.9805 12.0142 21.842 11.9495L19.4374 10.8398L19.3995 11.0028Z" fill="url(#paint0_linear)"/>
<path d="M0.219038 10.848C0.245831 10.8614 17.6188 14.3466 17.6479 14.3466C17.7997 14.3399 17.9471 14.2462 17.9761 14.0988L18.0699 13.6299C18.0989 13.4803 18.0006 13.3374 17.8622 13.2727C17.3978 13.0539 17.1231 12.5404 17.2281 12.0134C17.3331 11.4865 17.7863 11.1181 18.2998 11.0958C18.4517 11.0891 18.599 10.9953 18.628 10.8479L18.6973 10.5041L18.7218 10.3768C18.7509 10.2272 18.6526 10.0843 18.5142 10.0196C18.0498 9.80078 17.7751 9.28724 17.8801 8.76034C17.985 8.23339 18.4383 7.86499 18.9518 7.84266C19.1036 7.83596 19.251 7.74218 19.28 7.59482L19.3738 7.12595C19.4028 6.97635 19.3046 6.83346 19.1661 6.76871C18.7017 6.5499 18.4271 6.03637 18.5321 5.50944C18.637 4.98251 19.0902 4.61411 19.6038 4.59178C19.7556 4.58508 19.9029 4.49131 19.932 4.34395L20.0369 3.82372C20.066 3.67412 19.9699 3.52899 19.8204 3.49997C19.8204 3.49997 2.3625 -0.000976562 2.34464 -0.000976562C2.21514 -0.000976562 2.10127 0.090566 2.07447 0.220065L1.96953 0.740295C1.94051 0.889889 2.03875 1.03278 2.17718 1.09753C2.64159 1.31634 2.91622 1.82987 2.81128 2.3568C2.70634 2.88373 2.25309 3.25213 1.73956 3.27446C1.58771 3.28116 1.44037 3.37493 1.41135 3.5223L1.31757 3.99117C1.28855 4.14077 1.38679 4.28366 1.52522 4.34841C1.98963 4.56722 2.26428 5.08075 2.15932 5.60768C2.05438 6.13461 1.60113 6.50301 1.0876 6.52534C0.935772 6.53204 0.788411 6.62581 0.759385 6.77317L0.66561 7.24205C0.636584 7.39164 0.734847 7.53454 0.873255 7.59929C1.33769 7.8181 1.61232 8.33163 1.50736 8.85856C1.40242 9.38551 0.949169 9.75391 0.435637 9.77624C0.28381 9.78294 0.136449 9.87671 0.107423 10.0241L0.0136474 10.4929C-0.0176334 10.6425 0.0805852 10.7832 0.219038 10.848ZM15.1003 5.12543C15.1606 4.82401 15.4553 4.62753 15.7567 4.68781C16.0582 4.7481 16.2546 5.04282 16.1943 5.34424L15.4575 9.01041L15.0043 11.2699C14.9507 11.5356 14.7185 11.7187 14.4573 11.7187C14.4215 11.7187 14.3836 11.7143 14.3479 11.7076C14.0464 11.6473 13.85 11.3526 13.9102 11.0512L14.4171 8.53039L15.1003 5.12543ZM5.03507 3.10479C5.09536 2.80337 5.39008 2.60689 5.6915 2.66718C5.99292 2.72746 6.18941 3.02218 6.12912 3.3236L5.87459 4.58957L5.58659 6.02523L5.35438 7.18179L4.94132 9.24931C4.88776 9.51501 4.65553 9.69811 4.3943 9.69811C4.35857 9.69811 4.32062 9.69365 4.28492 9.68695C4.26929 9.6847 4.25366 9.68023 4.24026 9.67579C3.9634 9.59539 3.79146 9.31629 3.84953 9.03052L3.93212 8.613L4.1487 7.53235L5.03507 3.10479Z" fill="url(#paint1_linear)"/>
</g>
<defs>
<linearGradient id="paint0_linear" x1="11.46" y1="10.8398" x2="11.46" y2="21.9998" gradientUnits="userSpaceOnUse">
<stop stop-color="#FFC45C"/>
<stop offset="1" stop-color="#FF8832"/>
</linearGradient>
<linearGradient id="paint1_linear" x1="10.0249" y1="-0.000976563" x2="10.0249" y2="14.3466" gradientUnits="userSpaceOnUse">
<stop stop-color="#FFC45C"/>
<stop offset="1" stop-color="#FF8832"/>
</linearGradient>
<clipPath id="clip0">
<rect width="22" height="22" fill="white"/>
</clipPath>
</defs>
</svg>
