<svg width="22" height="22" viewBox="0 0 22 22" fill="none" xmlns="http://www.w3.org/2000/svg">
<g clip-path="url(#clip0)">
<path d="M10.9993 13.8194V5.42969C10.7615 5.45169 10.5264 5.48881 10.2871 5.49981H3.43729C3.05781 5.49981 2.74983 5.80779 2.74983 6.18727V6.87472H0.687458C0.307981 6.87472 0 7.1827 0 7.56218V11.6869C0 12.0664 0.307981 12.3744 0.687458 12.3744H2.74983V13.0618C2.74983 13.4413 3.05781 13.7493 3.43729 13.7493H3.85389L6.61747 21.1161C6.78659 21.5574 7.16469 21.8778 7.62941 21.9713C7.72153 21.9905 7.81365 22.0002 7.90439 22.0002C8.27149 22.0002 8.62072 21.8544 8.87096 21.5932L10.5222 19.9557C10.9443 19.5336 11.0447 18.875 10.7752 18.3649L8.46811 13.7493H10.294C10.5305 13.7603 10.7642 13.7974 10.9993 13.8194Z" fill="url(#paint0_linear)"/>
<path d="M21.8867 0.332729C21.8729 0.309356 21.8605 0.290107 21.8427 0.268108C21.767 0.171864 21.6722 0.0934942 21.5553 0.048122C21.5512 0.0467471 21.5484 0.0412474 21.5443 0.0398725C21.5306 0.0357478 21.5182 0.0426223 21.5044 0.0384976C21.4426 0.0206237 21.3807 0 21.3119 0C21.2652 0 21.2239 0.0178739 21.1786 0.0274983C21.1525 0.0329979 21.1277 0.0343729 21.1016 0.0426223C20.9833 0.0811199 20.8816 0.147116 20.8005 0.23786C20.795 0.24336 20.7867 0.244735 20.7812 0.250234C18.6377 2.85295 15.6487 4.59359 12.375 5.23155V14.0186C15.6487 14.6566 18.6377 16.3959 20.7812 18.9986C20.7867 19.0054 20.7963 19.0082 20.8032 19.0164C20.8513 19.0701 20.9105 19.1127 20.9737 19.1484C20.9943 19.1608 21.0108 19.1787 21.0315 19.1883C21.1181 19.2254 21.2116 19.2488 21.3119 19.2488C21.3903 19.2488 21.4673 19.235 21.5443 19.2089C21.5484 19.2076 21.5512 19.2021 21.5553 19.2007C21.6722 19.1553 21.767 19.0783 21.8427 18.9807C21.8592 18.9587 21.8715 18.9394 21.8867 18.9161C21.9527 18.8102 21.9994 18.6933 21.9994 18.5613V0.687457C21.9994 0.555465 21.9527 0.438598 21.8867 0.332729Z" fill="url(#paint1_linear)"/>
</g>
<defs>
<linearGradient id="paint0_linear" x1="5.49966" y1="5.42969" x2="5.49966" y2="22.0002" gradientUnits="userSpaceOnUse">
<stop stop-color="#BB81F1"/>
<stop offset="1" stop-color="#AD69EE"/>
</linearGradient>
<linearGradient id="paint1_linear" x1="17.1872" y1="0" x2="17.1872" y2="19.2488" gradientUnits="userSpaceOnUse">
<stop stop-color="#BB81F1"/>
<stop offset="1" stop-color="#AD69EE"/>
</linearGradient>
<clipPath id="clip0">
<rect width="22" height="22" fill="white"/>
</clipPath>
</defs>
</svg>
