<svg width="22" height="22" viewBox="0 0 22 22" fill="none" xmlns="http://www.w3.org/2000/svg">
<g clip-path="url(#clip0)">
<path d="M21.932 9.73306C21.8853 9.62122 21.8184 9.51947 21.7331 9.43422L18.984 6.68512C18.6256 6.32762 18.0463 6.32762 17.6879 6.68512C17.3295 7.04352 17.3295 7.62377 17.6879 7.98127L18.8731 9.16652H13.7526C13.2457 9.16652 12.8359 9.57717 12.8359 10.0832C12.8359 10.5892 13.2457 10.9998 13.7526 10.9998H18.8731L17.6878 12.1851C17.3294 12.5435 17.3294 13.1237 17.6878 13.4812C17.8666 13.6609 18.1012 13.7498 18.3359 13.7498C18.5706 13.7498 18.8053 13.6609 18.984 13.4812L21.7331 10.7321C21.8184 10.6478 21.8853 10.546 21.932 10.4333C22.0246 10.2097 22.0246 9.95672 21.932 9.73306Z" fill="url(#paint0_linear)"/>
<path d="M15.5833 12.8333C15.0764 12.8333 14.6667 13.244 14.6667 13.75V18.3333H11V3.66665C11 3.2624 10.7342 2.9049 10.3464 2.7885L7.1628 1.83335H14.6667V6.4167C14.6667 6.9227 15.0764 7.33335 15.5833 7.33335C16.0902 7.33335 16.5 6.9227 16.5 6.4167V0.916695C16.5 0.410652 16.0902 0 15.5833 0H0.916652C0.883652 0 0.854305 0.01375 0.82225 0.0174023C0.779152 0.022 0.73975 0.0293047 0.6985 0.0394023C0.60225 0.0641523 0.515152 0.10175 0.433598 0.153055C0.413445 0.165902 0.388695 0.166805 0.369445 0.181457C0.362055 0.187 0.359305 0.197098 0.351957 0.202598C0.252055 0.281402 0.168652 0.377652 0.108152 0.49225C0.0953047 0.517 0.0925547 0.543598 0.0825 0.56925C0.0531523 0.638902 0.0210977 0.70675 0.0100977 0.78375C0.0055 0.81125 0.01375 0.836902 0.0128477 0.8635C0.0119453 0.881848 0 0.898348 0 0.916652V19.25C0 19.6872 0.308902 20.0631 0.737 20.1483L9.90365 21.9817C9.96325 21.9945 10.0237 22 10.0833 22C10.2932 22 10.4995 21.9276 10.6645 21.7919C10.8762 21.6178 11 21.3583 11 21.0833V20.1667H15.5833C16.0902 20.1667 16.5 19.756 16.5 19.25V13.75C16.5 13.244 16.0902 12.8333 15.5833 12.8333Z" fill="url(#paint1_linear)"/>
</g>
<defs>
<linearGradient id="paint0_linear" x1="17.4187" y1="6.41699" x2="17.4187" y2="13.7498" gradientUnits="userSpaceOnUse">
<stop stop-color="#FF538B"/>
<stop offset="1" stop-color="#FF7633"/>
</linearGradient>
<linearGradient id="paint1_linear" x1="8.24998" y1="0" x2="8.24998" y2="22" gradientUnits="userSpaceOnUse">
<stop stop-color="#FF538B"/>
<stop offset="1" stop-color="#FF7633"/>
</linearGradient>
<clipPath id="clip0">
<rect width="22" height="22" fill="white"/>
</clipPath>
</defs>
</svg>
