<svg xmlns="http://www.w3.org/2000/svg" xmlns:xlink="http://www.w3.org/1999/xlink" width="22" height="22" viewBox="0 0 22 22"><defs><style>.a{fill:none;}.b{fill:url(#a);}</style><linearGradient id="a" x1="1.022" y1="0.093" x2="0" y2="1" gradientUnits="objectBoundingBox"><stop offset="0" stop-color="#0080ff"/><stop offset="1" stop-color="#14b7ff"/></linearGradient></defs><path class="a" d="M0,22V0H22V22Z"/><g transform="translate(1.467 3.667)"><path class="b" d="M28.053,26.133H11.92A1.466,1.466,0,0,0,10.453,27.6V39.333A1.466,1.466,0,0,0,11.92,40.8H28.053a1.466,1.466,0,0,0,1.467-1.467V27.6A1.466,1.466,0,0,0,28.053,26.133Zm-6.6,11.733H13.386a.733.733,0,0,1,0-1.467h8.067a.733.733,0,1,1,0,1.467Zm-2.2-3.667H13.386a.733.733,0,1,1,0-1.467h5.867a.733.733,0,1,1,0,1.467Zm2.2-3.667H13.386a.733.733,0,1,1,0-1.467h8.067a.733.733,0,1,1,0,1.467Zm4.4.733L24.386,29.8l1.467-1.467L27.32,29.8Zm0,3.667-1.467-1.467L25.853,32l1.467,1.467Zm0,3.667-1.467-1.467,1.467-1.467,1.467,1.467Z" transform="translate(-10.453 -26.133)"/></g></svg>