<svg width="71" height="71" viewBox="0 0 71 71" fill="none" xmlns="http://www.w3.org/2000/svg">
<g clip-path="url(#clip0)">
<path d="M70.9999 35.5001C70.9999 33.9996 70.1662 32.6503 68.8235 31.9781L63.5371 29.3349L68.8235 26.6918C68.8237 26.6917 68.8241 26.6916 68.8241 26.6916C70.1664 26.0197 71.0001 24.6703 71.0001 23.1697C71.0001 21.6694 70.1663 20.32 68.8238 19.6479L38.9792 4.72598C36.8004 3.63754 34.1992 3.63754 32.02 4.72611L2.1759 19.6486C0.833833 20.3202 2.76618e-07 21.6694 2.76618e-07 23.1699C2.76618e-07 24.6704 0.833694 26.0197 2.17631 26.6918L7.46261 29.3349L2.17562 31.9784C0.833694 32.6503 2.76618e-07 33.9996 2.76618e-07 35.5001C2.76618e-07 37.0007 0.833694 38.35 2.17631 39.022L7.46261 41.6652L2.17673 44.3081C0.834803 44.9786 0.000554963 46.3275 2.76618e-07 47.8282C-0.00055441 49.3297 0.833139 50.6798 2.17631 51.3521L32.0205 66.2743C33.1099 66.8185 34.3046 67.0905 35.4998 67.0905C36.695 67.0905 37.8902 66.8183 38.9798 66.2741L68.824 51.3519C70.1666 50.6801 71.0004 49.3298 70.9999 47.8283C70.9993 46.3276 70.1651 44.9787 68.8235 44.3087L63.5371 41.6655L68.8241 39.022C70.1662 38.35 70.9999 37.0007 70.9999 35.5001ZM3.63666 23.7727C3.31231 23.6103 3.26405 23.3253 3.26405 23.17C3.26405 23.0147 3.31259 22.7297 3.63611 22.5677L33.4793 7.64612C34.1121 7.32995 34.8062 7.17214 35.5002 7.17214C36.194 7.17214 36.8879 7.33009 37.5202 7.64598L67.3633 22.5675C67.6874 22.7297 67.736 23.0147 67.736 23.17C67.736 23.3253 67.6877 23.6103 67.3633 23.7727L37.5207 38.6939C36.2553 39.3259 34.7446 39.3259 33.4799 38.694L3.63666 23.7727ZM67.3643 47.2281C67.6874 47.3895 67.7358 47.674 67.7358 47.8294C67.7359 47.9851 67.6876 48.2707 67.3638 48.4326L37.5205 63.3542C36.2551 63.9863 34.7444 63.9865 33.4798 63.3544L3.63666 48.4328C3.31231 48.2704 3.26391 47.985 3.26405 47.8293C3.26405 47.6741 3.31231 47.3895 3.63611 47.2279L11.1122 43.4898L32.0205 53.9439C33.1099 54.4881 34.3046 54.7601 35.4997 54.7601C36.6949 54.7601 37.8901 54.4879 38.9796 53.9437L59.8874 43.4898L67.3643 47.2281ZM67.3636 36.1025L37.5205 51.0241C36.2551 51.6562 34.7444 51.6563 33.4798 51.0243L3.63666 36.1028C3.31231 35.9405 3.26405 35.6556 3.26405 35.5003C3.26405 35.3447 3.31231 35.06 3.63611 34.8979L11.1122 31.1598L32.0205 41.6139C33.1098 42.1582 34.3047 42.4301 35.4997 42.4301C36.6946 42.4301 37.8899 42.158 38.9795 41.6136L59.8876 31.1597L67.3631 34.8974C67.6874 35.0598 67.7357 35.3447 67.7357 35.5001C67.7358 35.6554 67.6874 35.9404 67.3636 36.1025Z" fill="#9E9E9E"/>
</g>
<defs>
<clipPath id="clip0">
<rect width="71" height="71" fill="white"/>
</clipPath>
</defs>
</svg>
