<?xml version="1.0" encoding="UTF-8" standalone="no"?>
<svg
   xmlns:dc="http://purl.org/dc/elements/1.1/"
   xmlns:cc="http://creativecommons.org/ns#"
   xmlns:rdf="http://www.w3.org/1999/02/22-rdf-syntax-ns#"
   xmlns:svg="http://www.w3.org/2000/svg"
   xmlns="http://www.w3.org/2000/svg"
   xmlns:sodipodi="http://sodipodi.sourceforge.net/DTD/sodipodi-0.dtd"
   xmlns:inkscape="http://www.inkscape.org/namespaces/inkscape"
   width="5"
   height="5"
   viewBox="0 0 5 5"
   fill="none"
   id="svg4304"
   version="1.1"
   inkscape:version="0.91 r13725"
   sodipodi:docname="like.svg">
  <metadata
     id="metadata4314">
    <rdf:RDF>
      <cc:Work
         rdf:about="">
        <dc:format>image/svg+xml</dc:format>
        <dc:type
           rdf:resource="http://purl.org/dc/dcmitype/StillImage" />
      </cc:Work>
    </rdf:RDF>
  </metadata>
  <defs
     id="defs4312" />
  <sodipodi:namedview
     pagecolor="#ffffff"
     bordercolor="#666666"
     borderopacity="1"
     objecttolerance="10"
     gridtolerance="10"
     guidetolerance="10"
     inkscape:pageopacity="0"
     inkscape:pageshadow="2"
     inkscape:window-width="1600"
     inkscape:window-height="844"
     id="namedview4310"
     showgrid="false"
     inkscape:zoom="127.40313"
     inkscape:cx="1.3893522"
     inkscape:cy="2.5"
     inkscape:window-x="0"
     inkscape:window-y="30"
     inkscape:window-maximized="1"
     inkscape:current-layer="svg4304" />
  <path
     d="M4.82817 2.7655C4.94275 2.63427 5.00006 2.47907 5.00006 2.29988C5.00006 2.13739 4.9406 1.99679 4.8221 1.87797C4.70335 1.75917 4.56275 1.6998 4.40025 1.6998H3.53467C3.54299 1.67065 3.55133 1.64565 3.55965 1.62482C3.56789 1.60399 3.57947 1.58105 3.59399 1.55605C3.60853 1.53104 3.61898 1.51228 3.62521 1.4998C3.6627 1.429 3.6914 1.37063 3.71121 1.32484C3.73098 1.27895 3.75067 1.21648 3.77053 1.13731C3.79035 1.05819 3.8002 0.978986 3.8002 0.899818C3.8002 0.849841 3.7996 0.809179 3.79862 0.777952C3.79764 0.746703 3.79233 0.699813 3.78304 0.637304C3.77361 0.574828 3.76108 0.522739 3.7455 0.481092C3.72985 0.439434 3.70482 0.392522 3.67051 0.340477C3.63612 0.288333 3.59447 0.246204 3.54547 0.213893C3.49648 0.181605 3.434 0.154526 3.35797 0.132668C3.28185 0.110788 3.19596 0.0998535 3.10007 0.0998535C3.04591 0.0998535 2.99908 0.119654 2.95946 0.159243C2.9178 0.200901 2.88232 0.252979 2.85319 0.315455C2.82401 0.377964 2.80368 0.432133 2.79221 0.477983C2.78075 0.523812 2.76771 0.587371 2.75319 0.668597C2.73438 0.756138 2.72038 0.819118 2.71094 0.857656C2.70158 0.896195 2.6833 0.946708 2.65625 1.0092C2.62914 1.07173 2.59688 1.12169 2.55937 1.15921C2.49063 1.22795 2.38544 1.35296 2.24374 1.53419C2.14163 1.6675 2.03643 1.79354 1.92811 1.9123C1.81976 2.03108 1.7406 2.09252 1.69061 2.09669C1.63857 2.10085 1.59377 2.12221 1.55626 2.16077C1.51875 2.19931 1.5 2.24463 1.5 2.2967V4.29981C1.5 4.35398 1.51978 4.40031 1.55937 4.43885C1.59894 4.47743 1.64581 4.49774 1.69998 4.49983C1.77289 4.50192 1.93748 4.5477 2.19374 4.63737C2.35413 4.69145 2.47963 4.73266 2.57026 4.76074C2.66087 4.78883 2.78752 4.81906 2.94989 4.85139C3.11242 4.88367 3.26239 4.89986 3.39985 4.89986H3.45299H3.69051H3.80298C4.08013 4.8957 4.28525 4.81442 4.41863 4.65613C4.53942 4.51236 4.59044 4.32382 4.57175 4.09048C4.65299 4.0134 4.70928 3.91553 4.74049 3.79675C4.77585 3.66974 4.77585 3.54785 4.74049 3.43121C4.8363 3.30412 4.8811 3.16142 4.87481 3.00308C4.87507 2.93635 4.85949 2.8572 4.82817 2.7655Z"
     fill="#797979"
     id="path4306"
     style="fill:#d0d0d0;fill-opacity:1" />
  <path
     d="M1.10001 2.09985H0.200037C0.145836 2.09985 0.098957 2.11965 0.0593786 2.15924C0.0198002 2.19881 0 2.24569 0 2.29986V4.29993C0 4.35402 0.0198002 4.40092 0.0593895 4.44055C0.0990008 4.48007 0.14588 4.49988 0.200048 4.49988H1.10001C1.15417 4.49988 1.20102 4.48007 1.24062 4.44055C1.2802 4.40092 1.29999 4.35403 1.29999 4.29993V2.29986C1.29999 2.24569 1.28019 2.19882 1.24062 2.15924C1.20103 2.11964 1.15418 2.09985 1.10001 2.09985ZM0.740618 4.04205C0.701039 4.08059 0.654171 4.09985 0.600003 4.09985C0.543744 4.09985 0.496339 4.08059 0.457823 4.04205C0.419284 4.00351 0.40002 3.95613 0.40002 3.89987C0.40002 3.84571 0.419273 3.79882 0.457823 3.75925C0.49635 3.71966 0.543744 3.69984 0.600003 3.69984C0.654171 3.69984 0.701039 3.71966 0.740618 3.75925C0.780207 3.79881 0.800008 3.8457 0.800008 3.89987C0.800008 3.95613 0.780251 4.0035 0.740618 4.04205Z"
     fill="#797979"
     id="path4308"
     style="fill:#d0d0d0;fill-opacity:1" />
</svg>
