<svg width="15" height="15" viewBox="0 0 15 15" fill="none" xmlns="http://www.w3.org/2000/svg">
<path d="M7.31406 12.3697H4.445C3.66529 12.3697 3.03265 11.7347 3.03265 10.9573V4.04266C3.03265 3.26295 3.66762 2.63031 4.445 2.63031H7.36075C7.53583 2.63031 7.6759 2.49024 7.6759 2.31515C7.6759 2.14007 7.53583 2 7.36075 2H4.445C3.31745 2 2.40234 2.91744 2.40234 4.04266V10.9573C2.40234 12.0849 3.31979 13 4.445 13H7.31406C7.48914 13 7.62921 12.8599 7.62921 12.6848C7.62921 12.5098 7.48681 12.3697 7.31406 12.3697Z" fill="#A8A8A8"/>
<path d="M12.5055 7.27823L10.5026 5.27526C10.3788 5.15153 10.1804 5.15153 10.0567 5.27526C9.93295 5.39899 9.93295 5.59742 10.0567 5.72114L11.5227 7.18719H5.12863C4.95354 7.18719 4.81348 7.32725 4.81348 7.50234C4.81348 7.67742 4.95354 7.81749 5.12863 7.81749H11.5227L10.0567 9.28354C9.93295 9.40726 9.93295 9.60569 10.0567 9.72942C10.1174 9.79012 10.1991 9.8228 10.2785 9.8228C10.3578 9.8228 10.4395 9.79245 10.5002 9.72942L12.5032 7.72645C12.6293 7.60039 12.6293 7.39962 12.5055 7.27823Z" fill="#A8A8A8"/>
</svg>
