<svg width="13" height="9" viewBox="0 0 13 9" fill="none" xmlns="http://www.w3.org/2000/svg">
<path d="M11.3697 0H1.63124C1.05934 0 0.592773 0.466062 0.592773 1.03846V7.96154C0.592773 8.532 1.05727 9 1.63124 9H11.3697C11.9402 9 12.4082 8.53551 12.4082 7.96154V1.03846C12.4082 0.468 11.9437 0 11.3697 0ZM11.2263 0.692308L6.52248 5.39615L1.77798 0.692308H11.2263ZM1.28508 7.81818V1.17852L4.61921 4.48405L1.28508 7.81818ZM1.77461 8.30769L5.11084 4.97146L6.27985 6.13043C6.41517 6.2646 6.63355 6.26416 6.76832 6.12937L7.90816 4.98953L11.2263 8.30769H1.77461ZM11.7159 7.81816L8.39769 4.5L11.7159 1.18182V7.81816Z" fill="#333333"/>
</svg>
