<?xml version="1.0" encoding="UTF-8" standalone="no"?>
<svg
   xmlns:dc="http://purl.org/dc/elements/1.1/"
   xmlns:cc="http://creativecommons.org/ns#"
   xmlns:rdf="http://www.w3.org/1999/02/22-rdf-syntax-ns#"
   xmlns:svg="http://www.w3.org/2000/svg"
   xmlns="http://www.w3.org/2000/svg"
   xmlns:sodipodi="http://sodipodi.sourceforge.net/DTD/sodipodi-0.dtd"
   xmlns:inkscape="http://www.inkscape.org/namespaces/inkscape"
   width="13"
   height="13"
   viewBox="0 0 13 13"
   fill="none"
   id="svg2"
   version="1.1"
   inkscape:version="0.91 r13725"
   sodipodi:docname="paymentgrey.svg">
  <metadata
     id="metadata33">
    <rdf:RDF>
      <cc:Work
         rdf:about="">
        <dc:format>image/svg+xml</dc:format>
        <dc:type
           rdf:resource="http://purl.org/dc/dcmitype/StillImage" />
        <dc:title></dc:title>
      </cc:Work>
    </rdf:RDF>
  </metadata>
  <sodipodi:namedview
     pagecolor="#ffffff"
     bordercolor="#666666"
     borderopacity="1"
     objecttolerance="10"
     gridtolerance="10"
     guidetolerance="10"
     inkscape:pageopacity="0"
     inkscape:pageshadow="2"
     inkscape:window-width="1549"
     inkscape:window-height="876"
     id="namedview31"
     showgrid="false"
     inkscape:zoom="18.153846"
     inkscape:cx="6.5"
     inkscape:cy="6.5"
     inkscape:window-x="51"
     inkscape:window-y="24"
     inkscape:window-maximized="1"
     inkscape:current-layer="g4" />
  <g
     clip-path="url(#clip0)"
     id="g4">
    <path
       d="M12.0604 6.24612H10.1812V0.253926C10.1812 0.151246 10.1193 0.0586467 10.0245 0.019342C9.92954 -0.0199881 9.82034 0.00179707 9.74774 0.0743636L9.02845 0.79363L8.30921 0.0743889C8.21006 -0.0247615 8.04929 -0.0247615 7.95011 0.0743889L7.23085 0.793655L6.51166 0.0743889C6.41251 -0.0247615 6.25173 -0.0247615 6.15256 0.0743889L5.43329 0.793655L4.714 0.0743889C4.61485 -0.0247615 4.45408 -0.0247615 4.35493 0.0743889L3.63566 0.793655L2.91645 0.0743889C2.8173 -0.0247615 2.65652 -0.0247615 2.55735 0.0743889L1.83808 0.793655L1.11884 0.0743889C1.0203 -0.0241522 0.860924 -0.02466 0.76152 0.0729925C0.709317 0.124307 0.684002 0.192684 0.685754 0.260604V11.6797C0.685754 12.4077 1.27802 13 2.00602 13H10.9937C10.9937 13 10.9938 13 10.9938 13C10.9939 13 10.994 13 10.994 13C11.722 13 12.3143 12.4077 12.3143 11.6797V6.5C12.3143 6.35977 12.2006 6.24612 12.0604 6.24612ZM2.00602 12.4922C1.558 12.4922 1.19354 12.1277 1.19354 11.6797V0.867237L1.65855 1.33224C1.7577 1.43139 1.91847 1.43139 2.01764 1.33224L2.73691 0.612975L3.45618 1.33224C3.55533 1.43139 3.7161 1.43139 3.81528 1.33224L4.53454 0.612975L5.25383 1.33224C5.35298 1.43139 5.51376 1.43139 5.61291 1.33224L6.33217 0.612975L7.05144 1.33224C7.15059 1.43139 7.31136 1.43139 7.41054 1.33224L8.1298 0.612975L8.84907 1.33224C8.94824 1.43139 9.10902 1.43139 9.20814 1.33224L9.67353 0.866882V6.5C9.67353 6.50231 9.67381 6.50457 9.67388 6.50688V11.6797C9.67388 11.986 9.779 12.268 9.95463 12.4922H2.00602ZM11.8065 11.6797C11.8065 12.1277 11.442 12.4922 10.994 12.4922C10.546 12.4922 10.1815 12.1277 10.1815 11.6797V6.75391H11.8065V11.6797Z"
       fill="#333333"
       id="path6"
       style="fill:#b3b3b3;fill-opacity:1" />
    <path
       d="M5.43345 4.0331C5.18144 4.0331 4.97644 3.85755 4.97644 3.6418C4.97644 3.42603 5.18147 3.25048 5.43345 3.25048C5.68545 3.25048 5.89045 3.42603 5.89045 3.6418C5.89045 3.78203 6.00413 3.89571 6.14436 3.89571C6.28459 3.89571 6.39826 3.78203 6.39826 3.6418C6.39826 3.22791 6.09652 2.87869 5.68735 2.77454V2.60254C5.68735 2.46231 5.57368 2.34863 5.43345 2.34863C5.29321 2.34863 5.17954 2.46231 5.17954 2.60254V2.77454C4.77034 2.87869 4.46863 3.22794 4.46863 3.6418C4.46863 4.13755 4.90146 4.54088 5.43345 4.54088C5.68545 4.54088 5.89045 4.71644 5.89045 4.9322C5.89045 5.14797 5.68545 5.3235 5.43345 5.3235C5.18144 5.3235 4.97644 5.14795 4.97644 4.9322C4.97644 4.79197 4.86277 4.6783 4.72253 4.6783C4.5823 4.6783 4.46863 4.79197 4.46863 4.9322C4.46863 5.3461 4.77037 5.69532 5.17954 5.79947V6.00666C5.17954 6.14689 5.29321 6.26057 5.43345 6.26057C5.57368 6.26057 5.68735 6.14689 5.68735 6.00666V5.79947C6.09655 5.69532 6.39826 5.3461 6.39826 4.9322C6.39826 4.43645 5.96543 4.0331 5.43345 4.0331Z"
       fill="#333333"
       id="path8"
       style="fill:#b3b3b3;fill-opacity:1" />
    <path
       d="M7.98436 4.0332H7.4895C7.34927 4.0332 7.2356 4.14688 7.2356 4.28711C7.2356 4.42734 7.34927 4.54102 7.4895 4.54102H7.98436C8.1246 4.54102 8.23827 4.42734 8.23827 4.28711C8.23827 4.14688 8.1246 4.0332 7.98436 4.0332Z"
       fill="#333333"
       id="path10"
       style="fill:#b3b3b3;fill-opacity:1" />
    <path
       d="M3.37743 4.0332H2.88257C2.74234 4.0332 2.62866 4.14688 2.62866 4.28711C2.62866 4.42734 2.74234 4.54102 2.88257 4.54102H3.37743C3.51766 4.54102 3.63134 4.42734 3.63134 4.28711C3.63134 4.14688 3.51766 4.0332 3.37743 4.0332Z"
       fill="#333333"
       id="path12"
       style="fill:#b3b3b3;fill-opacity:1" />
    <path
       d="M8.11292 6.85547H4.09045C3.95022 6.85547 3.83655 6.96914 3.83655 7.10937C3.83655 7.24961 3.95022 7.36328 4.09045 7.36328H8.11292C8.25316 7.36328 8.36683 7.24961 8.36683 7.10937C8.36681 6.96914 8.25316 6.85547 8.11292 6.85547Z"
       fill="#333333"
       id="path14"
       style="fill:#b3b3b3;fill-opacity:1" />
    <path
       d="M2.93354 6.92986C2.88631 6.88264 2.82081 6.85547 2.75403 6.85547C2.68725 6.85547 2.62174 6.88264 2.57452 6.92986C2.52729 6.97709 2.50012 7.0426 2.50012 7.10937C2.50012 7.17615 2.52729 7.24166 2.57452 7.28889C2.62174 7.33611 2.68725 7.36328 2.75403 7.36328C2.82081 7.36328 2.88631 7.33611 2.93354 7.28889C2.98077 7.24166 3.00793 7.17615 3.00793 7.10937C3.00793 7.0426 2.98077 6.97709 2.93354 6.92986Z"
       fill="#333333"
       id="path16"
       style="fill:#b3b3b3;fill-opacity:1" />
    <path
       d="M8.11292 8.53125H4.09045C3.95022 8.53125 3.83655 8.64492 3.83655 8.78516C3.83655 8.92539 3.95022 9.03906 4.09045 9.03906H8.11292C8.25316 9.03906 8.36683 8.92539 8.36683 8.78516C8.36681 8.64492 8.25316 8.53125 8.11292 8.53125Z"
       fill="#333333"
       id="path18"
       style="fill:#b3b3b3;fill-opacity:1" />
    <path
       d="M2.93354 8.60564C2.88631 8.55842 2.82081 8.53125 2.75403 8.53125C2.68725 8.53125 2.62174 8.55842 2.57452 8.60564C2.52729 8.65287 2.50012 8.71838 2.50012 8.78516C2.50012 8.85193 2.52729 8.91744 2.57452 8.96467C2.62174 9.01189 2.68725 9.03906 2.75403 9.03906C2.82081 9.03906 2.88631 9.01189 2.93354 8.96467C2.98077 8.91744 3.00793 8.85193 3.00793 8.78516C3.00793 8.71838 2.98077 8.65287 2.93354 8.60564Z"
       fill="#333333"
       id="path20"
       style="fill:#b3b3b3;fill-opacity:1" />
    <path
       d="M8.11292 10.207H4.09045C3.95022 10.207 3.83655 10.3207 3.83655 10.4609C3.83655 10.6012 3.95022 10.7148 4.09045 10.7148H8.11292C8.25316 10.7148 8.36683 10.6012 8.36683 10.4609C8.36683 10.3207 8.25316 10.207 8.11292 10.207Z"
       fill="#333333"
       id="path22"
       style="fill:#b3b3b3;fill-opacity:1" />
    <path
       d="M2.93354 10.2814C2.88631 10.2342 2.82081 10.207 2.75403 10.207C2.68725 10.207 2.62174 10.2342 2.57452 10.2814C2.52729 10.3287 2.50012 10.3942 2.50012 10.4609C2.50012 10.5277 2.52729 10.5932 2.57452 10.6404C2.62174 10.6877 2.68725 10.7148 2.75403 10.7148C2.82081 10.7148 2.88631 10.6877 2.93354 10.6404C2.98077 10.5932 3.00793 10.5277 3.00793 10.4609C3.00793 10.3942 2.98077 10.3287 2.93354 10.2814Z"
       fill="#333333"
       id="path24"
       style="fill:#b3b3b3;fill-opacity:1" />
  </g>
  <defs
     id="defs26">
    <clipPath
       id="clip0">
      <rect
         width="13"
         height="13"
         fill="white"
         id="rect29" />
    </clipPath>
  </defs>
</svg>
