<svg xmlns="http://www.w3.org/2000/svg" width="16.128" height="16.117" viewBox="0 0 16.128 16.117"><defs><style>.a{fill:#fff;}</style></defs><g transform="translate(0 -0.188)"><g transform="translate(0 0.188)"><path class="a" d="M16.12,12.908a.78.78,0,0,1-.239.683L13.61,15.844a1.278,1.278,0,0,1-.4.29,1.658,1.658,0,0,1-.487.154l-.1.009q-.085.008-.222.009a7.871,7.871,0,0,1-1.05-.111,7.974,7.974,0,0,1-1.776-.546,14.9,14.9,0,0,1-2.382-1.306,17.758,17.758,0,0,1-2.834-2.39A18.709,18.709,0,0,1,2.376,9.7,16.057,16.057,0,0,1,1.113,7.709,10.713,10.713,0,0,1,.4,6.053,8.787,8.787,0,0,1,.071,4.772,4.229,4.229,0,0,1,0,3.927Q.02,3.62.02,3.586A1.66,1.66,0,0,1,.174,3.1a1.279,1.279,0,0,1,.29-.4L2.735.427A.752.752,0,0,1,3.281.188a.637.637,0,0,1,.393.128,1.187,1.187,0,0,1,.29.316L5.791,4.1a.831.831,0,0,1,.085.6,1.064,1.064,0,0,1-.29.546l-.837.837a.285.285,0,0,0-.06.111.421.421,0,0,0-.026.128,3.083,3.083,0,0,0,.307.82,7.523,7.523,0,0,0,.632,1A11.09,11.09,0,0,0,6.815,9.493a11.309,11.309,0,0,0,1.366,1.221,7.888,7.888,0,0,0,1,.64,2.655,2.655,0,0,0,.615.247l.213.043a.407.407,0,0,0,.111-.026.285.285,0,0,0,.111-.06l.973-.99a1.046,1.046,0,0,1,.717-.273.892.892,0,0,1,.461.1H12.4l3.3,1.946A.859.859,0,0,1,16.12,12.908Z" transform="translate(0 -0.188)"/></g></g></svg>