<svg width="15" height="15" viewBox="0 0 15 15" fill="none" xmlns="http://www.w3.org/2000/svg">
<path d="M13.2895 8.0791C13.1159 8.0791 13.0001 8.1949 13.0001 8.36857V12.1317C13.0001 12.3054 12.8843 12.4212 12.7106 12.4212H2.28954C2.11585 12.4212 2.00007 12.3054 2.00007 12.1317V8.36857C2.00007 8.19488 1.88427 8.0791 1.71061 8.0791C1.53694 8.0791 1.42114 8.1949 1.42114 8.36857V12.1317C1.42114 12.6238 1.79745 13.0001 2.28956 13.0001H12.7106C13.2027 13.0001 13.579 12.6238 13.579 12.1317V8.36857C13.579 8.19488 13.4632 8.0791 13.2895 8.0791Z" fill="#333333"/>
<path d="M13 4.02637H2.00001C1.5079 4.02637 1.13159 4.40268 1.13159 4.89479V6.74742C1.13159 7.15266 1.42106 7.50004 1.79739 7.58689L6.34213 8.60004V9.52634C6.34213 9.70003 6.45793 9.81581 6.63159 9.81581H8.36843C8.54212 9.81581 8.6579 9.70001 8.6579 9.52634V8.60004L13.2026 7.58689C13.579 7.50004 13.8684 7.15266 13.8684 6.7474V4.89476C13.8684 4.40268 13.4921 4.02637 13 4.02637ZM8.07897 9.23688H6.92108V8.079H8.07897V9.23688ZM13.2895 6.7474C13.2895 6.89213 13.2026 7.00793 13.0579 7.03686L8.6579 8.02108V7.78951C8.6579 7.61582 8.54209 7.50004 8.36843 7.50004H6.63159C6.4579 7.50004 6.34213 7.61584 6.34213 7.78951V8.02108L1.94212 7.03689C1.79739 7.00793 1.71055 6.89216 1.71055 6.74742V4.89479C1.71055 4.7211 1.82635 4.60532 2.00001 4.60532H13C13.1737 4.60532 13.2895 4.72112 13.2895 4.89479V6.7474Z" fill="#333333"/>
<path d="M8.94737 2H6.05262C5.56051 2 5.1842 2.37631 5.1842 2.86842V3.15788C5.1842 3.33157 5.3 3.44734 5.47367 3.44734C5.64733 3.44734 5.76313 3.33154 5.76313 3.15788V2.86842C5.76313 2.69473 5.87893 2.57895 6.0526 2.57895H8.94734C9.12103 2.57895 9.23681 2.69475 9.23681 2.86842V3.15788C9.23681 3.33157 9.35261 3.44734 9.52627 3.44734C9.69996 3.44734 9.81574 3.33154 9.81574 3.15788V2.86842C9.81579 2.37631 9.43948 2 8.94737 2Z" fill="#333333"/>
</svg>
