<svg width="54" height="54" viewBox="0 0 54 54" fill="none" xmlns="http://www.w3.org/2000/svg">
<g clip-path="url(#clip0)">
<path d="M27 13C19.28 13 13 19.28 13 27C13 34.72 19.28 41 27 41C34.72 41 41 34.72 41 27C41 19.28 34.72 13 27 13ZM27 39C20.383 39 15 33.617 15 27C15 20.383 20.383 15 27 15C33.617 15 39 20.383 39 27C39 33.617 33.617 39 27 39Z" fill="#7C7C7C"/>
<path d="M51.22 21H49.202C48.687 19.088 47.93 17.258 46.942 15.543L48.368 14.117C48.893 13.592 49.182 12.893 49.182 12.151C49.182 11.408 48.893 10.71 48.368 10.184L43.815 5.631C42.765 4.582 40.934 4.58 39.882 5.631L38.456 7.057C36.74 6.07 34.911 5.313 33 4.798V2.78C33 1.247 31.753 0 30.22 0H23.78C22.247 0 21 1.247 21 2.78V4.798C19.089 5.313 17.26 6.07 15.543 7.058L14.117 5.632C13.066 4.58 11.234 4.582 10.184 5.632L5.631 10.185C5.106 10.71 4.817 11.409 4.817 12.152C4.817 12.894 5.106 13.592 5.631 14.118L7.057 15.544C6.07 17.258 5.312 19.088 4.798 21H2.78C1.247 21 0 22.247 0 23.78V30.219C0 31.753 1.247 33 2.78 33H4.798C5.313 34.911 6.07 36.74 7.058 38.457L5.632 39.883C5.107 40.408 4.818 41.107 4.818 41.849C4.818 42.592 5.107 43.29 5.632 43.816L10.185 48.369C11.235 49.42 13.067 49.421 14.118 48.369L15.544 46.943C17.261 47.93 19.09 48.688 21.001 49.203V51.221C21.001 52.754 22.248 54.001 23.781 54.001H30.22C31.753 54.001 33 52.754 33 51.221V49.203C34.911 48.688 36.74 47.931 38.457 46.943L39.883 48.369C40.935 49.421 42.765 49.419 43.816 48.369L48.369 43.816C48.894 43.291 49.183 42.592 49.183 41.849C49.183 41.107 48.894 40.409 48.369 39.883L46.943 38.457C47.93 36.74 48.688 34.911 49.203 33H51.221C52.754 33 54.001 31.753 54.001 30.22V23.78C54 22.247 52.753 21 51.22 21ZM52 30.22C52 30.65 51.65 31 51.22 31H47.628L47.448 31.773C46.927 34.01 46.049 36.133 44.835 38.084L44.415 38.758L46.954 41.297C47.259 41.602 47.259 42.097 46.954 42.401L42.401 46.954C42.097 47.258 41.602 47.26 41.297 46.954L38.758 44.415L38.084 44.835C36.134 46.049 34.011 46.928 31.773 47.448L31 47.628V51.22C31 51.65 30.65 52 30.22 52H23.78C23.35 52 23 51.65 23 51.22V47.628L22.227 47.448C19.99 46.927 17.867 46.049 15.916 44.835L15.242 44.415L12.703 46.954C12.397 47.26 11.902 47.258 11.599 46.954L7.046 42.401C6.741 42.096 6.741 41.601 7.046 41.297L9.585 38.758L9.165 38.084C7.951 36.134 7.072 34.011 6.552 31.773L6.372 31H2.78C2.35 31 2 30.65 2 30.22V23.78C2 23.35 2.35 23 2.78 23H6.372L6.552 22.227C7.073 19.989 7.951 17.866 9.165 15.916L9.585 15.242L7.046 12.703C6.741 12.398 6.741 11.903 7.046 11.599L11.599 7.046C11.903 6.742 12.398 6.74 12.703 7.046L15.242 9.585L15.916 9.165C17.866 7.951 19.989 7.072 22.227 6.552L23 6.372V2.78C23 2.35 23.35 2 23.78 2H30.219C30.65 2 31 2.35 31 2.78V6.372L31.773 6.552C34.01 7.073 36.133 7.951 38.084 9.165L38.758 9.585L41.297 7.046C41.603 6.74 42.098 6.742 42.401 7.046L46.954 11.599C47.259 11.904 47.259 12.399 46.954 12.703L44.415 15.242L44.835 15.916C46.049 17.865 46.928 19.988 47.448 22.227L47.628 23H51.22C51.65 23 52 23.35 52 23.78V30.22Z" fill="#7C7C7C"/>
<path d="M27 17C21.486 17 17 21.486 17 27C17 32.514 21.486 37 27 37C32.514 37 37 32.514 37 27C37 21.486 32.514 17 27 17ZM27 35C22.589 35 19 31.411 19 27C19 22.589 22.589 19 27 19C31.411 19 35 22.589 35 27C35 31.411 31.411 35 27 35Z" fill="#7C7C7C"/>
</g>
<defs>
<clipPath id="clip0">
<rect width="54" height="54" fill="white"/>
</clipPath>
</defs>
</svg>
