<svg xmlns="http://www.w3.org/2000/svg" width="35.488" height="28.749" viewBox="0 0 35.488 28.749"><defs><style>.a{fill:#333;}</style></defs><g transform="translate(0 -2.897)"><path class="a" d="M31.193,21.67l4.2-12.557a1.218,1.218,0,0,0-.119-1.206,1.89,1.89,0,0,0-1.5-.619l-23.71,0-.633-3A1.668,1.668,0,0,0,7.73,2.9H1.067C.376,2.9,0,3.22,0,3.866V5.6c0,.625.375.787,1.091.787H6.717l4.306,18.281A4.167,4.167,0,0,0,13.9,31.6a4.392,4.392,0,0,0,3.9-3.114h8.386a4.106,4.106,0,0,0,3.9,3.16A4.032,4.032,0,0,0,34,27.6,3.775,3.775,0,0,0,30.1,23.542,3.819,3.819,0,0,0,27.14,25h-10.3a3.265,3.265,0,0,0-2.8-1.564l-.143-.762H29.569C30.751,22.67,30.983,22.24,31.193,21.67Zm-1.088,4.409a1.477,1.477,0,1,1-1.478,1.477A1.478,1.478,0,0,1,30.105,26.079ZM15.359,27.556a1.494,1.494,0,1,1-1.492-1.5A1.5,1.5,0,0,1,15.359,27.556Z" transform="translate(0 0)"/></g></svg>