<svg width="29" height="29" viewBox="0 0 29 29" fill="none" xmlns="http://www.w3.org/2000/svg">
<path d="M14.5 0C6.50492 0 0 6.50437 0 14.5C0 22.4956 6.50492 29 14.5 29C22.4951 29 29 22.4956 29 14.5C29 6.50437 22.4951 0 14.5 0ZM22.5837 9.66425L13.6607 19.7027C13.4409 19.9498 13.1348 20.0769 12.8264 20.0769C12.5815 20.0769 12.3356 19.9966 12.1298 19.8327L6.55288 15.3711C6.07215 14.9869 5.99408 14.2847 6.37888 13.8034C6.76313 13.3222 7.46583 13.2441 7.94656 13.6289L12.6964 17.4284L20.9163 8.18135C21.3245 7.72069 22.0305 7.67942 22.4906 8.08877C22.9513 8.49867 22.9931 9.2036 22.5837 9.66425Z" fill="#9E9E9E"/>
</svg>
