<svg width="46" height="46" viewBox="0 0 46 46" fill="none" xmlns="http://www.w3.org/2000/svg">
<path d="M5.75 17.25C2.5875 17.25 0 19.8375 0 23C0 26.1625 2.5875 28.75 5.75 28.75C8.9125 28.75 11.5 26.1625 11.5 23C11.5 19.8375 8.9125 17.25 5.75 17.25ZM40.25 17.25C37.0875 17.25 34.5 19.8375 34.5 23C34.5 26.1625 37.0875 28.75 40.25 28.75C43.4125 28.75 46 26.1625 46 23C46 19.8375 43.4125 17.25 40.25 17.25ZM23 17.25C19.8375 17.25 17.25 19.8375 17.25 23C17.25 26.1625 19.8375 28.75 23 28.75C26.1625 28.75 28.75 26.1625 28.75 23C28.75 19.8375 26.1625 17.25 23 17.25Z" fill="#666666"/>
</svg>
