<svg width="50" height="50" viewBox="0 0 50 50" fill="none" xmlns="http://www.w3.org/2000/svg">
<path d="M18.75 33.3346V29.168V25.0013V16.668H6.25V25.0013V29.168V33.3346H10.4167V29.168H14.5833V33.3346H18.75ZM10.4167 25.0013V20.8346H14.5833V25.0013H10.4167Z" fill="#00A2F5"/>
<path d="M27.0846 29.168H35.418V16.668H22.918V25.0013V29.168V33.3346H27.0846V29.168ZM27.0846 20.8346H31.2513V25.0013H27.0846V20.8346Z" fill="#00A2F5"/>
<path d="M43.7487 16.668H39.582V33.3346H43.7487V16.668Z" fill="#00A2F5"/>
<path d="M25 0.179688L19.9708 5.2099H0V13.5432H4.16667V9.37656H21.6958L25 6.07344L28.3042 9.37656H45.8333V13.5432H50V5.2099H30.0292L25 0.179688Z" fill="#00A2F5"/>
<path d="M45.8333 40.6276H28.3042L25 43.9307L21.6958 40.6276H4.16667V36.4609H0V44.7943H19.9708L25 49.8245L30.0292 44.7943H50V36.4609H45.8333V40.6276Z" fill="#00A2F5"/>
</svg>
