<svg width="15" height="15" viewBox="0 0 15 15" fill="none" xmlns="http://www.w3.org/2000/svg">
<g clip-path="url(#clip0)">
<path d="M14.186 6.45345H8.54649V0.813951C8.54649 0.557049 8.19764 0 7.49997 0C6.8023 0 6.45345 0.557079 6.45345 0.813951V6.45348H0.813951C0.557079 6.45345 0 6.8023 0 7.49994C0 8.19758 0.557079 8.54646 0.813951 8.54646H6.45348V14.186C6.45348 14.4428 6.8023 14.9999 7.5 14.9999C8.1977 14.9999 8.54652 14.4428 8.54652 14.186V8.54646H14.186C14.4429 8.54646 15 8.19764 15 7.49994C15 6.80224 14.4428 6.45345 14.186 6.45345Z" fill="#707070"/>
</g>
<defs>
<clipPath id="clip0">
<rect width="15" height="15" fill="white"/>
</clipPath>
</defs>
</svg>
