<svg width="15" height="15" viewBox="0 0 15 15" fill="none" xmlns="http://www.w3.org/2000/svg">
<path d="M14.6181 9.95996C14.4073 9.95996 14.2363 10.1309 14.2363 10.3418V11.8009C14.2363 12.6431 13.5511 13.3283 12.7089 13.3283H2.2911C1.44891 13.3283 0.763711 12.6431 0.763711 11.8009V10.3418C0.763711 10.1309 0.592764 9.95996 0.381855 9.95996C0.170947 9.95996 0 10.1309 0 10.3418V11.8009C0 13.0642 1.02779 14.092 2.2911 14.092H12.7089C13.9722 14.092 15 13.0642 15 11.8009V10.3418C15 10.1309 14.8291 9.95996 14.6181 9.95996Z" fill="white"/>
<path d="M12.3 11.4639H2.70046C2.48961 11.4639 2.3186 11.6348 2.3186 11.8457C2.3186 12.0566 2.48955 12.2276 2.70046 12.2276H12.3C12.5109 12.2276 12.6819 12.0566 12.6819 11.8457C12.6819 11.6348 12.5109 11.4639 12.3 11.4639Z" fill="white"/>
<path d="M11.3345 4.00849L8.136 1.15113C7.77342 0.827256 7.22663 0.827197 6.86402 1.15113L3.66556 4.00846C3.50827 4.14894 3.49467 4.39034 3.63518 4.54764C3.77566 4.70487 4.01704 4.71858 4.17439 4.57802L7.1182 1.94821V9.3489C7.1182 9.55981 7.2892 9.73075 7.50005 9.73075C7.71096 9.73075 7.88191 9.55981 7.88191 9.3489V1.94821L10.8257 4.57802C10.8985 4.64309 10.9894 4.67514 11.08 4.67514C11.1849 4.67514 11.2894 4.6321 11.3649 4.54767C11.5053 4.39037 11.4917 4.14902 11.3345 4.00849Z" fill="white"/>
</svg>
