<svg width="50" height="50" viewBox="0 0 50 50" fill="none" xmlns="http://www.w3.org/2000/svg">
<path d="M13.0001 18H9.00006C7.34603 18 6 19.346 6 21.0001V31.0003C6 31.5523 6.44701 32.0003 7.00002 32.0003C7.55303 32.0003 8.00004 31.5523 8.00004 31.0003V28.0002H14.0002V31.0003C14.0002 31.5523 14.4472 32.0003 15.0002 32.0003C15.5532 32.0003 16.0002 31.5523 16.0002 31.0003V21.0001C16.0002 19.346 14.6542 18 13.0001 18ZM14.0002 26.0002H8.00004V21.0001C8.00004 20.449 8.44805 20 9.00006 20H13.0001C13.5522 20 14.0002 20.449 14.0002 21.0001V26.0002Z" fill="url(#paint0_linear)" stroke="url(#paint1_linear)"/>
<path d="M26.0001 18H22C21.447 18 21 18.448 21 19V31.0003C21 31.5523 21.447 32.0003 22 32.0003C22.553 32.0003 23 31.5523 23 31.0003V28.0002H26.0001C28.7571 28.0002 31.0002 25.7572 31.0002 23.0001C31.0002 20.243 28.7571 18 26.0001 18ZM26.0001 26.0002H23V20H26.0001C27.6541 20 29.0001 21.3461 29.0001 23.0001C29.0001 24.6541 27.6541 26.0002 26.0001 26.0002Z" fill="url(#paint2_linear)" stroke="url(#paint3_linear)"/>
<path d="M43.0002 30.0002H40.0001V20H43.0002C43.5532 20 44.0002 19.552 44.0002 19C44.0002 18.448 43.5532 18 43.0002 18H35C34.447 18 34 18.448 34 19C34 19.552 34.447 20 35 20H38.0001V30.0002H35C34.447 30.0002 34 30.4482 34 31.0003C34 31.5523 34.447 32.0003 35 32.0003H43.0002C43.5532 32.0003 44.0002 31.5523 44.0002 31.0003C44.0002 30.4482 43.5532 30.0002 43.0002 30.0002Z" fill="url(#paint4_linear)" stroke="url(#paint5_linear)"/>
<path d="M45.0008 8.00033H29.4145L25.7075 4.29326C25.3165 3.90225 24.6844 3.90225 24.2934 4.29326L20.5864 8.00033H5.00006C3.34603 8.00033 2 9.34636 2 11.0004V14.0005C2 14.5525 2.44701 15.0005 3.00002 15.0005C3.55303 15.0005 4.00004 14.5525 4.00004 14.0005V11.0004C4.00004 10.4494 4.44805 10.0004 5.00006 10.0004H21.0004C21.2664 10.0004 21.5204 9.89537 21.7074 9.70737L25.0005 6.4143L28.2935 9.70737C28.4805 9.89537 28.7345 10.0004 29.0005 10.0004H45.0008C45.5529 10.0004 46.0009 10.4494 46.0009 11.0004V14.0005C46.0009 14.5525 46.4479 15.0005 47.0009 15.0005C47.5539 15.0005 48.0009 14.5525 48.0009 14.0005V11.0004C48.0009 9.34636 46.6549 8.00033 45.0008 8.00033Z" fill="url(#paint6_linear)" stroke="url(#paint7_linear)"/>
<path d="M47.0009 35C46.4479 35 46.0009 35.448 46.0009 36V39.0001C46.0009 39.5511 45.5529 40.0001 45.0008 40.0001H29.0005C28.7345 40.0001 28.4805 40.1051 28.2935 40.2931L25.0005 43.5862L21.7074 40.2931C21.5204 40.1051 21.2664 40.0001 21.0004 40.0001H5.00006C4.44805 40.0001 4.00004 39.5511 4.00004 39.0001V36C4.00004 35.448 3.55303 35 3.00002 35C2.44701 35 2 35.448 2 36V39.0001C2 40.6541 3.34603 42.0001 5.00006 42.0001H20.5864L24.2934 45.7072C24.4884 45.9022 24.7444 46.0002 25.0005 46.0002C25.2565 46.0002 25.5125 45.9022 25.7075 45.7072L29.4145 42.0001H45.0008C46.6549 42.0001 48.0009 40.6541 48.0009 39.0001V36C48.0009 35.448 47.5539 35 47.0009 35Z" fill="url(#paint8_linear)" stroke="url(#paint9_linear)"/>
<defs>
<linearGradient id="paint0_linear" x1="11.0001" y1="18" x2="11.0001" y2="32.0003" gradientUnits="userSpaceOnUse">
<stop stop-color="#0088F9"/>
<stop offset="1" stop-color="#3AC4FB"/>
</linearGradient>
<linearGradient id="paint1_linear" x1="11.0001" y1="18" x2="11.0001" y2="32.0003" gradientUnits="userSpaceOnUse">
<stop stop-color="#028AF9"/>
<stop offset="1" stop-color="#30BAFA"/>
</linearGradient>
<linearGradient id="paint2_linear" x1="26.0001" y1="18" x2="26.0001" y2="32.0003" gradientUnits="userSpaceOnUse">
<stop stop-color="#0088F9"/>
<stop offset="1" stop-color="#3AC4FB"/>
</linearGradient>
<linearGradient id="paint3_linear" x1="26.0001" y1="18" x2="26.0001" y2="32.0003" gradientUnits="userSpaceOnUse">
<stop stop-color="#028AF9"/>
<stop offset="1" stop-color="#30BAFA"/>
</linearGradient>
<linearGradient id="paint4_linear" x1="39.0001" y1="18" x2="39.0001" y2="32.0003" gradientUnits="userSpaceOnUse">
<stop stop-color="#0088F9"/>
<stop offset="1" stop-color="#3AC4FB"/>
</linearGradient>
<linearGradient id="paint5_linear" x1="39.0001" y1="18" x2="39.0001" y2="32.0003" gradientUnits="userSpaceOnUse">
<stop stop-color="#028AF9"/>
<stop offset="1" stop-color="#30BAFA"/>
</linearGradient>
<linearGradient id="paint6_linear" x1="25.0005" y1="4" x2="25.0005" y2="15.0005" gradientUnits="userSpaceOnUse">
<stop stop-color="#0088F9"/>
<stop offset="1" stop-color="#3AC4FB"/>
</linearGradient>
<linearGradient id="paint7_linear" x1="25.0005" y1="4" x2="25.0005" y2="15.0005" gradientUnits="userSpaceOnUse">
<stop stop-color="#028AF9"/>
<stop offset="1" stop-color="#30BAFA"/>
</linearGradient>
<linearGradient id="paint8_linear" x1="25.0005" y1="35" x2="25.0005" y2="46.0002" gradientUnits="userSpaceOnUse">
<stop stop-color="#0088F9"/>
<stop offset="1" stop-color="#3AC4FB"/>
</linearGradient>
<linearGradient id="paint9_linear" x1="25.0005" y1="35" x2="25.0005" y2="46.0002" gradientUnits="userSpaceOnUse">
<stop stop-color="#028AF9"/>
<stop offset="1" stop-color="#30BAFA"/>
</linearGradient>
</defs>
</svg>
