<svg width="50" height="50" viewBox="0 0 50 50" fill="none" xmlns="http://www.w3.org/2000/svg">
<path d="M30.5714 24.0664H20.0312C12.9074 24.0664 7.25137 29.7351 7.11218 36.7324C6.71993 38.8455 6.18849 42.5402 7.50443 43.8562C11.06 47.2852 19.1075 48.6012 25.295 48.6012C31.6216 48.6012 39.53 47.2852 43.0855 43.8562C44.4015 42.5402 43.8827 38.8455 43.4778 36.7324C43.3639 29.7351 37.5687 24.0664 30.5714 24.0664V24.0664ZM41.39 41.8696C38.8846 44.375 32.6845 45.9566 25.4468 45.9566C18.1965 45.9566 11.8698 44.375 9.50366 41.9961C9.23794 41.4647 7.97261 27.1538 20.0439 26.5591C22.7896 26.4199 30.7233 26.5591 30.7233 26.5591C42.5541 26.5718 41.6557 41.4774 41.39 41.8696Z" fill="url(#paint0_linear)"/>
<path d="M25.1684 21.6866C30.9636 21.6866 35.7086 16.9416 35.5821 11.2603C35.5821 5.45244 30.9636 0.833984 25.1684 0.833984C19.4998 0.833984 14.7548 5.57897 14.7548 11.2603C14.7548 17.0682 19.3732 21.6866 25.1684 21.6866ZM25.1684 3.47853C29.5212 3.47853 33.0767 7.0341 33.0767 11.2603C33.0767 15.4865 29.5212 19.0421 25.1684 19.0421C20.8157 19.0421 17.2601 15.4865 17.2601 11.2603C17.2601 7.0341 20.8283 3.47853 25.1684 3.47853V3.47853Z" fill="url(#paint1_linear)"/>
<defs>
<linearGradient id="paint0_linear" x1="25.2973" y1="24.0664" x2="25.2973" y2="48.6012" gradientUnits="userSpaceOnUse">
<stop stop-color="#078FF9"/>
<stop offset="1" stop-color="#37C0FB"/>
</linearGradient>
<linearGradient id="paint1_linear" x1="25.1697" y1="0.833984" x2="25.1697" y2="21.6866" gradientUnits="userSpaceOnUse">
<stop stop-color="#078FF9"/>
<stop offset="1" stop-color="#37C0FB"/>
</linearGradient>
</defs>
</svg>
