<svg width="50" height="50" viewBox="0 0 50 50" fill="none" xmlns="http://www.w3.org/2000/svg">
<path d="M34.1652 6.07321C33.1108 5.61256 31.8827 6.09391 31.422 7.14831C30.9614 8.20271 31.4427 9.43085 32.4971 9.89149C39.2757 12.8528 43.7499 19.5573 43.7499 27.0825C43.7499 37.4375 35.3542 45.8327 24.9998 45.8327C14.644 45.8327 6.24964 37.4383 6.24964 27.0825C6.24964 19.5589 10.7223 12.8545 17.4989 9.8912C18.5532 9.43026 19.0341 8.20193 18.5731 7.14773C18.1121 6.09352 16.8838 5.61256 15.8296 6.0736C7.54936 9.69423 2.08301 17.8882 2.08301 27.0824C2.08301 39.7394 12.343 49.9993 24.9999 49.9993C37.6555 49.9993 47.9168 39.7387 47.9168 27.0824C47.9168 17.8861 42.4482 9.69169 34.1652 6.07321Z" fill="url(#paint0_linear)"/>
<path d="M24.9988 22.9169C26.1494 22.9169 27.0822 21.9842 27.0822 20.8336V2.08341C27.0823 0.932722 26.1494 0 24.9988 0C23.8482 0 22.9155 0.932722 22.9155 2.08332V20.8335C22.9155 21.9841 23.8482 22.9169 24.9988 22.9169Z" fill="url(#paint1_linear)"/>
<defs>
<linearGradient id="paint0_linear" x1="24.9999" y1="5.89844" x2="24.9999" y2="49.9993" gradientUnits="userSpaceOnUse">
<stop stop-color="#0088F9"/>
<stop offset="1" stop-color="#3AC4FB"/>
</linearGradient>
<linearGradient id="paint1_linear" x1="24.9988" y1="0" x2="24.9988" y2="22.9169" gradientUnits="userSpaceOnUse">
<stop stop-color="#0088F9"/>
<stop offset="1" stop-color="#3AC4FB"/>
</linearGradient>
</defs>
</svg>
