<svg width="50" height="50" viewBox="0 0 50 50" fill="none" xmlns="http://www.w3.org/2000/svg">
<path d="M42.6082 23.7827C42.6082 21.572 40.9414 19.7445 38.7987 19.4878V8.39239C38.7987 7.71306 38.358 7.13779 37.7021 6.96102C37.0463 6.78442 36.3762 7.0601 36.0349 7.64732C33.6911 11.6797 29.9996 14.4359 25.0628 15.8395C21.3298 16.9008 18.2493 16.747 18.2195 16.7452C18.1743 16.7426 18.1294 16.7447 18.0849 16.7492H10.1914C6.22609 16.7492 3 19.9753 3 23.9406C3 27.6756 5.86232 30.7535 9.50839 31.0987L11.8892 40.8889C12.2044 42.1852 13.3563 43.0905 14.6904 43.0905H16.3428C17.2331 43.0905 18.0592 42.6891 18.6093 41.9891C19.1595 41.2892 19.3543 40.3916 19.144 39.5265L17.1026 31.132H18.0834C18.1281 31.1365 18.1732 31.1387 18.2188 31.1361C18.2494 31.1344 21.3298 30.9804 25.0628 32.0418C29.9995 33.4454 33.691 36.2016 36.0349 40.2339C36.3074 40.7028 36.7894 40.9731 37.3064 40.9731C37.437 40.9731 37.5698 40.9558 37.7021 40.9203C38.358 40.7435 38.7987 40.1683 38.7987 39.489V28.3934C40.9414 28.1368 42.6082 26.3092 42.6082 24.0986V23.7827ZM17.2024 38.8162L17.4739 39.9327C17.5588 40.282 17.4802 40.6445 17.258 40.9271C17.0359 41.2098 16.7023 41.3719 16.3428 41.3719H14.6904C14.1517 41.3719 13.6866 41.0063 13.5593 40.4828L11.2853 31.1321H15.3338L15.9407 33.6281H15.5299C15.0553 33.6281 14.6706 34.0129 14.6706 34.4875C14.6706 34.9621 15.0553 35.3469 15.5299 35.3469H16.3586L16.7844 37.0974H16.515C16.0404 37.0974 15.6557 37.4822 15.6557 37.9568C15.6557 38.4314 16.0404 38.8162 16.515 38.8162H17.2024V38.8162ZM17.3114 25.7665H11.9708C11.4961 25.7665 11.1114 26.1512 11.1114 26.6258C11.1114 27.1005 11.4961 27.4852 11.9708 27.4852H17.3114V29.4133H16.056C16.0402 29.4124 16.0246 29.4113 16.0086 29.4113H10.1914C10.1833 29.4113 10.1752 29.4125 10.167 29.4127C7.16066 29.3994 4.71875 26.9501 4.71875 23.9406C4.71875 20.923 7.17381 18.468 10.1914 18.468H17.3114V25.7665V25.7665ZM37.0798 20.3152V27.5661V38.6494C34.5044 34.6442 30.5096 31.7904 25.4748 30.3722C22.6871 29.5869 20.2792 29.4301 19.0302 29.4097V26.6258V18.4716C20.2794 18.4512 22.6873 18.2943 25.4748 17.5091C30.5095 16.0908 34.5044 13.2371 37.0798 9.23192V20.3152V20.3152ZM40.8893 24.0986C40.8893 25.3596 39.9898 26.4145 38.7986 26.6551V21.2261C39.9897 21.4668 40.8893 22.5216 40.8893 23.7827V24.0986Z" fill="url(#paint0_linear)" stroke="url(#paint1_linear)"/>
<path d="M42.8655 18.9273C43.072 18.9273 43.2792 18.8533 43.4438 18.7033L45.9225 16.4459C46.2734 16.1263 46.2988 15.5828 45.9792 15.2319C45.6596 14.881 45.1162 14.8556 44.7652 15.1752L42.2866 17.4325C41.9357 17.7521 41.9103 18.2955 42.2299 18.6465C42.3995 18.8327 42.6321 18.9273 42.8655 18.9273Z" fill="url(#paint2_linear)" stroke="url(#paint3_linear)"/>
<path d="M43.4439 29.1791C43.0929 28.8595 42.5495 28.8849 42.2299 29.2358C41.9103 29.5867 41.9357 30.1302 42.2866 30.4498L44.7652 32.7071C44.93 32.8572 45.1371 32.9312 45.3437 32.9312C45.5771 32.9312 45.8097 32.8366 45.9792 32.6504C46.2988 32.2995 46.2734 31.756 45.9225 31.4364L43.4439 29.1791Z" fill="url(#paint4_linear)" stroke="url(#paint5_linear)"/>
<path d="M46.1406 23.082H44.2373C43.7627 23.082 43.3779 23.4668 43.3779 23.9414C43.3779 24.416 43.7627 24.8008 44.2373 24.8008H46.1406C46.6152 24.8008 47 24.416 47 23.9414C47 23.4668 46.6152 23.082 46.1406 23.082Z" fill="url(#paint6_linear)" stroke="url(#paint7_linear)"/>
<path d="M9.22375 26.2963C9.20227 26.2439 9.17562 26.194 9.14469 26.1476C9.11289 26.1004 9.07766 26.0565 9.03813 26.017C8.99773 25.9775 8.95391 25.9414 8.90664 25.9104C8.86023 25.8795 8.81039 25.8529 8.75883 25.8314C8.70641 25.8099 8.65227 25.7936 8.59812 25.7824C8.48727 25.76 8.37297 25.76 8.26211 25.7824C8.20711 25.7936 8.15297 25.8099 8.10141 25.8314C8.04984 25.8529 7.99914 25.8795 7.95273 25.9104C7.90547 25.9414 7.86164 25.9775 7.82211 26.017C7.78258 26.0565 7.74648 26.1004 7.71555 26.1476C7.68461 26.194 7.65797 26.2439 7.63648 26.2963C7.615 26.3479 7.59867 26.402 7.5875 26.457C7.57633 26.512 7.57031 26.5687 7.57031 26.6246C7.57031 26.6804 7.57633 26.7371 7.5875 26.793C7.59867 26.8471 7.615 26.9013 7.63648 26.9537C7.65797 27.0053 7.68461 27.0551 7.71555 27.1015C7.74648 27.1488 7.78258 27.1926 7.82211 27.2321C7.86164 27.2717 7.90547 27.3078 7.95273 27.3396C7.99914 27.3705 8.04984 27.3971 8.10141 27.4186C8.15297 27.4401 8.20711 27.4564 8.26211 27.4676C8.31797 27.4788 8.37383 27.4839 8.42969 27.4839C8.48641 27.4839 8.54227 27.4788 8.59812 27.4676C8.65312 27.4564 8.70641 27.4401 8.75883 27.4186C8.81039 27.3971 8.86023 27.3705 8.90664 27.3396C8.95391 27.3078 8.99773 27.2717 9.03813 27.2321C9.07766 27.1926 9.11289 27.1488 9.14469 27.1015C9.17562 27.0551 9.20227 27.0053 9.22375 26.9537C9.24523 26.9013 9.26156 26.8471 9.27273 26.793C9.28391 26.7371 9.28906 26.6804 9.28906 26.6246C9.28906 26.5687 9.28391 26.512 9.27273 26.457C9.26156 26.402 9.24523 26.3479 9.22375 26.2963Z" fill="url(#paint8_linear)" stroke="url(#paint9_linear)"/>
<defs>
<linearGradient id="paint0_linear" x1="22.8041" y1="6.9082" x2="22.8041" y2="43.0905" gradientUnits="userSpaceOnUse">
<stop stop-color="#0088F9"/>
<stop offset="1" stop-color="#3AC4FB"/>
</linearGradient>
<linearGradient id="paint1_linear" x1="22.8041" y1="6.9082" x2="22.8041" y2="43.0905" gradientUnits="userSpaceOnUse">
<stop stop-color="#028AF9"/>
<stop offset="0.9999" stop-color="#39C3FB"/>
<stop offset="1" stop-color="#028AF9" stop-opacity="0"/>
</linearGradient>
<linearGradient id="paint2_linear" x1="44.1046" y1="14.9512" x2="44.1046" y2="18.9273" gradientUnits="userSpaceOnUse">
<stop stop-color="#0088F9"/>
<stop offset="1" stop-color="#3AC4FB"/>
</linearGradient>
<linearGradient id="paint3_linear" x1="44.1046" y1="14.9512" x2="44.1046" y2="18.9273" gradientUnits="userSpaceOnUse">
<stop stop-color="#028AF9"/>
<stop offset="0.9999" stop-color="#39C3FB"/>
<stop offset="1" stop-color="#028AF9" stop-opacity="0"/>
</linearGradient>
<linearGradient id="paint4_linear" x1="44.1046" y1="28.9551" x2="44.1046" y2="32.9312" gradientUnits="userSpaceOnUse">
<stop stop-color="#0088F9"/>
<stop offset="1" stop-color="#3AC4FB"/>
</linearGradient>
<linearGradient id="paint5_linear" x1="44.1046" y1="28.9551" x2="44.1046" y2="32.9312" gradientUnits="userSpaceOnUse">
<stop stop-color="#028AF9"/>
<stop offset="0.9999" stop-color="#39C3FB"/>
<stop offset="1" stop-color="#028AF9" stop-opacity="0"/>
</linearGradient>
<linearGradient id="paint6_linear" x1="45.1889" y1="23.082" x2="45.1889" y2="24.8008" gradientUnits="userSpaceOnUse">
<stop stop-color="#0088F9"/>
<stop offset="1" stop-color="#3AC4FB"/>
</linearGradient>
<linearGradient id="paint7_linear" x1="45.1889" y1="23.082" x2="45.1889" y2="24.8008" gradientUnits="userSpaceOnUse">
<stop stop-color="#028AF9"/>
<stop offset="0.9999" stop-color="#39C3FB"/>
<stop offset="1" stop-color="#028AF9" stop-opacity="0"/>
</linearGradient>
<linearGradient id="paint8_linear" x1="8.42969" y1="25.7656" x2="8.42969" y2="27.4839" gradientUnits="userSpaceOnUse">
<stop stop-color="#0088F9"/>
<stop offset="1" stop-color="#3AC4FB"/>
</linearGradient>
<linearGradient id="paint9_linear" x1="8.42969" y1="25.7656" x2="8.42969" y2="27.4839" gradientUnits="userSpaceOnUse">
<stop stop-color="#028AF9"/>
<stop offset="0.9999" stop-color="#39C3FB"/>
<stop offset="1" stop-color="#028AF9" stop-opacity="0"/>
</linearGradient>
</defs>
</svg>
