<svg width="50" height="50" viewBox="0 0 50 50" fill="none" xmlns="http://www.w3.org/2000/svg">
<path d="M35.2155 24.664C35.0982 24.1691 34.7348 23.7713 34.2528 23.6112L27.0659 21.2151L32.17 11.007C32.4904 10.3647 32.2987 9.58364 31.7165 9.16303C31.1314 8.74389 30.3303 8.80688 29.8239 9.31606L15.1755 23.9645C14.8164 24.3236 14.669 24.8428 14.7849 25.3364C14.9022 25.8313 15.2656 26.229 15.7476 26.3892L22.9346 28.7853L17.8304 38.9934C17.51 39.6357 17.7017 40.4167 18.284 40.8373C18.8671 41.2552 19.6666 41.1941 20.1765 40.6843L34.825 26.0359C35.1841 25.6768 35.3314 25.1576 35.2155 24.664Z" fill="url(#paint0_linear)"/>
<path d="M25 0C17.5654 0 10.5431 3.45762 5.85938 9.03604V7.42188C5.85938 6.61221 5.2042 5.95703 4.39453 5.95703C3.58486 5.95703 2.92969 6.61221 2.92969 7.42188V13.6446C2.92969 15.0426 4.73535 15.2427 4.39453 15.1095C4.42461 15.1095 4.45459 15.108 4.48467 15.1066L10.344 14.7433C11.1522 14.6932 11.766 13.9979 11.7159 13.1911C11.6658 12.3843 10.9606 11.7764 10.1638 11.8192L7.19561 12.0038C11.3069 6.41123 17.959 2.92969 25 2.92969C37.1164 2.92969 47.0703 12.8836 47.0703 25C47.0703 25.8097 47.7255 26.4648 48.5352 26.4648C49.3448 26.4648 50 25.8097 50 25C50 11.2686 38.7314 0 25 0Z" fill="url(#paint1_linear)"/>
<path d="M45.5153 34.8934L39.656 35.2567C38.8478 35.3068 38.234 36.0021 38.2841 36.8089C38.3342 37.6157 39.0552 38.2309 39.8362 38.1808L42.8044 37.9962C38.6931 43.5888 32.041 47.0703 25 47.0703C12.8836 47.0703 2.92969 37.1164 2.92969 25C2.92969 24.1903 2.27451 23.5352 1.46484 23.5352C0.655176 23.5352 0 24.1903 0 25C0 38.7314 11.2686 50 25 50C32.4346 50 39.4569 46.5424 44.1406 40.964V42.5781C44.1406 43.3878 44.7958 44.043 45.6055 44.043C46.4151 44.043 47.0703 43.3878 47.0703 42.5781V36.3554C47.0703 35.5507 46.2987 34.8492 45.5153 34.8934Z" fill="url(#paint2_linear)"/>
<defs>
<linearGradient id="paint0_linear" x1="25.0002" y1="8.88672" x2="25.0002" y2="41.1133" gradientUnits="userSpaceOnUse">
<stop stop-color="#0088F9"/>
<stop offset="1" stop-color="#3AC4FB"/>
</linearGradient>
<linearGradient id="paint1_linear" x1="26.4648" y1="0" x2="26.4648" y2="26.4648" gradientUnits="userSpaceOnUse">
<stop stop-color="#0088F9"/>
<stop offset="1" stop-color="#3AC4FB"/>
</linearGradient>
<linearGradient id="paint2_linear" x1="23.5352" y1="23.5352" x2="23.5352" y2="50" gradientUnits="userSpaceOnUse">
<stop stop-color="#0088F9"/>
<stop offset="1" stop-color="#3AC4FB"/>
</linearGradient>
</defs>
</svg>
