<svg width="50" height="50" viewBox="0 0 50 50" fill="none" xmlns="http://www.w3.org/2000/svg">
<g clip-path="url(#clip0)">
<path d="M43.0108 2.63477H6.98925C3.6129 2.63477 0 4.47348 0 9.62401V33.7746C0 38.9251 3.6129 40.7638 6.98925 40.7638H20.3226V45.2154H18.1075C17.5137 45.2154 17.0323 45.6969 17.0323 46.2907C17.0323 46.8845 17.5137 47.3659 18.1075 47.3659H32.3011C32.8949 47.3659 33.3763 46.8845 33.3763 46.2907C33.3763 45.6969 32.8949 45.2154 32.3011 45.2154H29.6774V40.7638H43.0108C48.1613 40.7638 50 37.1509 50 33.7746V9.62401C50 4.47348 46.3871 2.63477 43.0108 2.63477ZM27.5269 45.2154H22.4731V40.7638H27.5269V45.2154ZM47.8495 33.7746C47.8495 35.2262 47.3763 38.6133 43.0108 38.6133H6.98925C5.53763 38.6133 2.15054 38.1401 2.15054 33.7746V32.2369H47.8495V33.7746ZM47.8495 30.0971H2.15054V9.66702C2.15054 5.30143 5.53763 4.82831 6.98925 4.82831H43.0108C44.4624 4.82831 47.8495 5.30143 47.8495 9.66702V30.0971Z" fill="url(#paint0_linear)"/>
<path d="M42.4316 7.70982C41.9568 7.3531 41.2828 7.44879 40.9261 7.92353C40.9257 7.92406 40.9252 7.92447 40.925 7.925H40.9787L32.9572 18.6777L29.1938 13.7852C28.9978 13.5302 28.698 13.3763 28.3766 13.3659C28.0566 13.3567 27.749 13.4909 27.5379 13.7315L21.4087 20.6992L16.9141 13.0218C16.7224 12.6985 16.3759 12.4988 16.0001 12.4949C15.6227 12.4927 15.2716 12.6886 15.0754 13.011L7.65603 25.0003C7.27417 25.4551 7.33345 26.1333 7.78829 26.5152C8.24313 26.897 8.92135 26.8378 9.30321 26.3829C9.38022 26.2913 9.44124 26.1874 9.48399 26.0755L15.9356 15.5594L20.2367 22.968C20.5365 23.4807 21.1951 23.653 21.7078 23.3531C21.8051 23.2961 21.8929 23.2242 21.9679 23.1401L28.2259 16.1401L32.0646 21.1293C32.2843 21.378 32.5938 21.5288 32.9248 21.5487C33.2595 21.5453 33.5735 21.3863 33.7743 21.1186L42.6453 9.21533C43.002 8.7406 42.9063 8.06654 42.4316 7.70982Z" fill="url(#paint1_linear)"/>
</g>
<defs>
<linearGradient id="paint0_linear" x1="25" y1="2.63477" x2="25" y2="47.3659" gradientUnits="userSpaceOnUse">
<stop stop-color="#0088F9"/>
<stop offset="1" stop-color="#3AC4FB"/>
</linearGradient>
<linearGradient id="paint1_linear" x1="25.1326" y1="7.49414" x2="25.1326" y2="26.7669" gradientUnits="userSpaceOnUse">
<stop stop-color="#0088F9"/>
<stop offset="1" stop-color="#3AC4FB"/>
</linearGradient>
<clipPath id="clip0">
<rect width="50" height="50" fill="white"/>
</clipPath>
</defs>
</svg>
