<svg width="50" height="50" viewBox="0 0 50 50" fill="none" xmlns="http://www.w3.org/2000/svg">
<g clip-path="url(#clip0)">
<path d="M25 12.0371C17.8518 12.0371 12.037 17.8519 12.037 25.0001C12.037 32.1482 17.8518 37.963 25 37.963C32.1481 37.963 37.9629 32.1482 37.9629 25.0001C37.9629 17.8519 32.1481 12.0371 25 12.0371ZM25 36.1112C18.8731 36.1112 13.8888 31.1269 13.8888 25.0001C13.8888 18.8732 18.8731 13.889 25 13.889C31.1268 13.889 36.1111 18.8732 36.1111 25.0001C36.1111 31.1269 31.1268 36.1112 25 36.1112Z" fill="url(#paint0_linear)"/>
<path d="M47.4259 19.4444H45.5574C45.0806 17.6741 44.3796 15.9796 43.4648 14.3917L44.7852 13.0713C45.2713 12.5852 45.5389 11.938 45.5389 11.2509C45.5389 10.563 45.2713 9.91667 44.7852 9.42963L40.5694 5.21389C39.5972 4.24259 37.9019 4.24074 36.9278 5.21389L35.6074 6.53426C34.0185 5.62037 32.325 4.91944 30.5556 4.44259V2.57407C30.5556 1.15463 29.4009 0 27.9815 0H22.0185C20.5991 0 19.4444 1.15463 19.4444 2.57407V4.44259C17.675 4.91944 15.9815 5.62037 14.3917 6.53519L13.0713 5.21481C12.0981 4.24074 10.4019 4.24259 9.42963 5.21481L5.21389 9.43056C4.72778 9.91667 4.46019 10.5639 4.46019 11.2519C4.46019 11.9389 4.72778 12.5852 5.21389 13.0722L6.53426 14.3926C5.62037 15.9796 4.91852 17.6741 4.44259 19.4444H2.57407C1.15463 19.4444 0 20.5991 0 22.0185V27.9806C0 29.4009 1.15463 30.5556 2.57407 30.5556H4.44259C4.91944 32.325 5.62037 34.0185 6.53519 35.6083L5.21481 36.9287C4.7287 37.4148 4.46111 38.062 4.46111 38.7491C4.46111 39.437 4.7287 40.0833 5.21481 40.5704L9.43056 44.7861C10.4028 45.7593 12.0991 45.7602 13.0722 44.7861L14.3926 43.4657C15.9824 44.3796 17.6759 45.0815 19.4454 45.5583V47.4269C19.4454 48.8463 20.6 50.0009 22.0194 50.0009H27.9815C29.4009 50.0009 30.5556 48.8463 30.5556 47.4269V45.5583C32.325 45.0815 34.0185 44.3806 35.6083 43.4657L36.9287 44.7861C37.9028 45.7602 39.5972 45.7583 40.5704 44.7861L44.7861 40.5704C45.2722 40.0843 45.5398 39.437 45.5398 38.7491C45.5398 38.062 45.2722 37.4157 44.7861 36.9287L43.4657 35.6083C44.3796 34.0185 45.0815 32.325 45.5583 30.5556H47.4269C48.8463 30.5556 50.0009 29.4009 50.0009 27.9815V22.0185C50 20.5991 48.8454 19.4444 47.4259 19.4444ZM48.1481 27.9815C48.1481 28.3796 47.8241 28.7037 47.4259 28.7037H44.1L43.9333 29.4194C43.4509 31.4907 42.638 33.4565 41.5139 35.263L41.125 35.887L43.4759 38.238C43.7583 38.5204 43.7583 38.9787 43.4759 39.2602L39.2602 43.4759C38.9787 43.7574 38.5204 43.7593 38.238 43.4759L35.887 41.125L35.263 41.5139C33.4574 42.638 31.4917 43.4519 29.4194 43.9333L28.7037 44.1V47.4259C28.7037 47.8241 28.3796 48.1481 27.9815 48.1481H22.0185C21.6204 48.1481 21.2963 47.8241 21.2963 47.4259V44.1L20.5806 43.9333C18.5093 43.4509 16.5435 42.638 14.737 41.5139L14.113 41.125L11.762 43.4759C11.4787 43.7593 11.0204 43.7574 10.7398 43.4759L6.52407 39.2602C6.24167 38.9778 6.24167 38.5194 6.52407 38.238L8.875 35.887L8.48611 35.263C7.36204 33.4574 6.54815 31.4917 6.06667 29.4194L5.9 28.7037H2.57407C2.17593 28.7037 1.85185 28.3796 1.85185 27.9815V22.0185C1.85185 21.6204 2.17593 21.2963 2.57407 21.2963H5.9L6.06667 20.5806C6.54907 18.5083 7.36204 16.5426 8.48611 14.737L8.875 14.113L6.52407 11.762C6.24167 11.4796 6.24167 11.0213 6.52407 10.7398L10.7398 6.52407C11.0213 6.24259 11.4796 6.24074 11.762 6.52407L14.113 8.875L14.737 8.48611C16.5426 7.36204 18.5083 6.54815 20.5806 6.06667L21.2963 5.9V2.57407C21.2963 2.17593 21.6204 1.85185 22.0185 1.85185H27.9806C28.3796 1.85185 28.7037 2.17593 28.7037 2.57407V5.9L29.4194 6.06667C31.4907 6.54907 33.4565 7.36204 35.263 8.48611L35.887 8.875L38.238 6.52407C38.5213 6.24074 38.9796 6.24259 39.2602 6.52407L43.4759 10.7398C43.7583 11.0222 43.7583 11.4806 43.4759 11.762L41.125 14.113L41.5139 14.737C42.638 16.5417 43.4519 18.5074 43.9333 20.5806L44.1 21.2963H47.4259C47.8241 21.2963 48.1481 21.6204 48.1481 22.0185V27.9815Z" fill="url(#paint1_linear)"/>
<path d="M25 15.7422C19.8944 15.7422 15.7407 19.8959 15.7407 25.0014C15.7407 30.107 19.8944 34.2607 25 34.2607C30.1055 34.2607 34.2592 30.107 34.2592 25.0014C34.2592 19.8959 30.1055 15.7422 25 15.7422ZM25 32.4089C20.9157 32.4089 17.5926 29.0857 17.5926 25.0014C17.5926 20.9172 20.9157 17.594 25 17.594C29.0842 17.594 32.4074 20.9172 32.4074 25.0014C32.4074 29.0857 29.0842 32.4089 25 32.4089Z" fill="url(#paint2_linear)"/>
</g>
<defs>
<linearGradient id="paint0_linear" x1="25" y1="12.0371" x2="25" y2="37.963" gradientUnits="userSpaceOnUse">
<stop stop-color="#028AF9"/>
<stop offset="1" stop-color="#38C1FB"/>
</linearGradient>
<linearGradient id="paint1_linear" x1="25.0005" y1="0" x2="25.0005" y2="50.0009" gradientUnits="userSpaceOnUse">
<stop stop-color="#028AF9"/>
<stop offset="1" stop-color="#38C1FB"/>
</linearGradient>
<linearGradient id="paint2_linear" x1="25" y1="15.7422" x2="25" y2="34.2607" gradientUnits="userSpaceOnUse">
<stop stop-color="#028AF9"/>
<stop offset="1" stop-color="#38C1FB"/>
</linearGradient>
<clipPath id="clip0">
<rect width="50" height="50" fill="white"/>
</clipPath>
</defs>
</svg>
