<svg width="50" height="50" viewBox="0 0 50 50" fill="none" xmlns="http://www.w3.org/2000/svg">
<path d="M28.3822 7.71485C28.9212 7.71485 29.3588 7.2773 29.3588 6.73828C29.3588 6.19888 28.9212 5.76172 28.3822 5.76172C27.8428 5.76172 27.4053 6.19888 27.4053 6.73828C27.4053 7.2773 27.8428 7.71485 28.3822 7.71485Z" fill="url(#paint0_linear)"/>
<path d="M16.0525 33.0856C13.5857 33.0856 11.5789 35.1008 11.5789 37.5778V38.4762H10.6842C9.20403 38.4762 8 39.6856 8 41.1719V45.3047C8 46.791 9.20403 48 10.6842 48H39.3158C40.796 48 42 46.791 42 45.3047V41.1719C42 39.6856 40.796 38.4762 39.3158 38.4762H38.4211V37.5778C38.4211 35.1008 36.4143 33.0856 33.9475 33.0856H29.4736V27.2752C29.4736 23.0147 30.448 18.4491 32.5401 12.9073C32.8802 12.0057 33.0528 11.0563 33.0528 10.0853C33.0528 4.91188 28.2601 1.00403 23.076 2.22499C20.208 2.90058 17.8996 5.1937 17.1953 8.06694C16.8154 9.61358 16.8762 11.2013 17.3711 12.6584C18.7859 16.8225 20.423 22.3373 20.5212 28.0712C20.5247 28.2568 20.5264 28.4425 20.5264 28.6285V33.0856H16.0525ZM40.2106 41.1719V45.3047C40.2106 45.7999 39.8093 46.2031 39.3158 46.2031H10.6842C10.191 46.2031 9.78944 45.7999 9.78944 45.3047V41.1719C9.78944 40.6763 10.191 40.2734 10.6842 40.2734H39.3158C39.8093 40.2734 40.2106 40.6763 40.2106 41.1719ZM36.6317 37.5778V38.4762H13.3683V37.5778C13.3683 36.0919 14.5727 34.8825 16.0525 34.8825H33.9475C35.4273 34.8825 36.6317 36.0919 36.6317 37.5778ZM19.0648 12.0783C18.6807 10.9476 18.6353 9.70904 18.9327 8.49685C19.4779 6.27252 21.2646 4.49706 23.4846 3.97449C27.5629 3.01428 31.263 6.08757 31.263 10.0853C31.263 10.8381 31.1299 11.5733 30.8667 12.2706C28.7148 17.9712 27.7027 22.7055 27.6852 27.1559H22.2826C22.0408 21.4986 20.4499 16.155 19.0648 12.0783V12.0783ZM22.3158 28.9528H27.6842V33.0856H22.3158V28.9528Z" fill="url(#paint1_linear)" stroke="url(#paint2_linear)"/>
<path d="M26.293 17.4457C26.8114 17.5849 27.3489 17.2786 27.4893 16.7556C27.9818 14.9211 28.5902 13.0325 29.3497 10.9821C29.537 10.4763 29.2788 9.91435 28.7729 9.72705C28.2671 9.53975 27.7052 9.798 27.5179 10.3038C26.7374 12.4111 26.111 14.3558 25.6029 16.249C25.4633 16.7701 25.7719 17.3057 26.293 17.4457Z" fill="url(#paint3_linear)"/>
<defs>
<linearGradient id="paint0_linear" x1="28.382" y1="5.76172" x2="28.382" y2="7.71485" gradientUnits="userSpaceOnUse">
<stop stop-color="#0088F9"/>
<stop offset="1" stop-color="#3AC4FB"/>
</linearGradient>
<linearGradient id="paint1_linear" x1="25" y1="2" x2="25" y2="48" gradientUnits="userSpaceOnUse">
<stop stop-color="#0088F9"/>
<stop offset="1" stop-color="#3AC4FB"/>
</linearGradient>
<linearGradient id="paint2_linear" x1="25" y1="2" x2="25" y2="48" gradientUnits="userSpaceOnUse">
<stop stop-color="#028AF9"/>
<stop offset="1" stop-color="#38C2FB"/>
</linearGradient>
<linearGradient id="paint3_linear" x1="27.49" y1="9.66602" x2="27.49" y2="17.4793" gradientUnits="userSpaceOnUse">
<stop stop-color="#0088F9"/>
<stop offset="1" stop-color="#3AC4FB"/>
</linearGradient>
</defs>
</svg>
